<svg width="0" height="0" class="hidden">
  <symbol fill="none" xmlns="http://www.w3.org/2000/svg" viewBox="0 0 72 72" id="mangoDb">
    <path d="M49.5091 29.7353C46.2748 15.467 39.5336 11.6686 37.8139 8.98353C37.1048 7.80069 36.4767 6.57118 35.9337 5.30344C35.8429 6.57098 35.676 7.36953 34.5986 8.33075C32.4353 10.2595 23.2478 17.7465 22.4746 33.9583C21.7542 49.0737 33.5867 58.3944 35.15 59.3577C36.352 59.9492 37.816 59.3704 38.5301 58.8275C44.234 54.9129 52.0273 44.4768 49.5155 29.7353" fill="#10AA50"></path>
    <path d="M36.4239 51.309C36.126 55.0503 35.9126 57.2242 35.1563 59.3621C35.1563 59.3621 35.6528 62.9239 36.0014 66.6969H37.2351C37.5294 64.04 37.9787 61.4025 38.5808 58.798C36.9837 58.0122 36.4852 54.5919 36.4239 51.309Z" fill="#B8C4C2"></path>
    <path d="M38.5787 58.7997C36.9647 58.054 36.4978 54.5619 36.426 51.3086C36.8252 45.9419 36.9415 40.558 36.7746 35.1791C36.6901 32.3567 36.8147 9.03819 36.0796 5.62428C36.5825 6.78054 37.1619 7.90198 37.814 8.98115C39.5336 11.6683 46.2769 15.4667 49.5091 29.735C52.0273 44.4512 44.2763 54.8598 38.5787 58.7997Z" fill="#12924F"></path>
  </symbol>
  <symbol id="menu" enable-background="new 0 0 24 24" xmlns="http://www.w3.org/2000/svg" viewBox="0 0 24 24">
    <g>
      <path d="m21.5 24h-19c-1.379 0-2.5-1.122-2.5-2.5v-19c0-1.378 1.121-2.5 2.5-2.5h19c1.379 0 2.5 1.122 2.5 2.5v19c0 1.378-1.121 2.5-2.5 2.5zm-19-23c-.827 0-1.5.673-1.5 1.5v19c0 .827.673 1.5 1.5 1.5h19c.827 0 1.5-.673 1.5-1.5v-19c0-.827-.673-1.5-1.5-1.5z"></path>
    </g>
    <g>
      <path d="m16.5 8h-9c-.276 0-.5-.224-.5-.5s.224-.5.5-.5h9c.276 0 .5.224.5.5s-.224.5-.5.5z"></path>
    </g>
    <g>
      <path d="m16.5 12.5h-9c-.276 0-.5-.224-.5-.5s.224-.5.5-.5h9c.276 0 .5.224.5.5s-.224.5-.5.5z"></path>
    </g>
    <g>
      <path d="m16.5 17h-9c-.276 0-.5-.224-.5-.5s.224-.5.5-.5h9c.276 0 .5.224.5.5s-.224.5-.5.5z"></path>
    </g>
  </symbol>
  <symbol fill="none" xmlns="http://www.w3.org/2000/svg" viewBox="0 0 73 72" id="mysql">
    <path fill-rule="evenodd" clip-rule="evenodd" d="M70.663 31.5482C69.052 31.5071 67.8047 31.6699 66.7578 32.1143C66.6817 32.1448 66.5942 32.1677 66.5053 32.1909C66.2412 32.2598 65.9644 32.332 65.9329 32.6188C66.0259 32.7112 66.0721 32.8359 66.1208 32.9675L66.1208 32.9676C66.1576 33.0669 66.1958 33.1703 66.2567 33.2665C66.4981 33.6704 66.9189 34.2139 67.3031 34.4972C67.725 34.8216 68.1485 35.1428 68.5924 35.4256C68.978 35.665 69.389 35.8551 69.798 36.0443C70.2193 36.2392 70.6385 36.4331 71.0256 36.6789C71.2797 36.8399 71.5329 37.028 71.7864 37.2162C71.9763 37.3573 72.1663 37.4984 72.357 37.6284C72.4379 37.6881 72.508 37.7617 72.5787 37.8357C72.699 37.9619 72.8208 38.0897 72.9998 38.1534V38.0917C72.9257 37.9971 72.8792 37.8804 72.8319 37.7617C72.7885 37.6526 72.7444 37.5419 72.6776 37.4451L72.0731 36.86C71.489 36.0728 70.7632 35.3855 69.9804 34.8211C69.8129 34.7053 69.5937 34.5786 69.3564 34.4416C68.6808 34.0513 67.8586 33.5763 67.6652 33.0249L67.6242 32.9838C68.039 32.9448 68.526 32.801 68.9319 32.6812L69.0132 32.6572C69.3571 32.5662 69.6858 32.5313 70.0168 32.4961C70.345 32.4613 70.6753 32.4262 71.0251 32.336C71.3111 32.2643 71.5949 32.1764 71.8812 32.0879L71.9933 32.0532V31.871C71.8258 31.7037 71.6804 31.511 71.535 31.3183C71.3641 31.092 71.1932 30.8656 70.9863 30.6798C69.9615 29.7915 68.8322 28.9226 67.6652 28.1953C67.2859 27.9496 66.8409 27.757 66.4009 27.5667L66.4008 27.5666C66.1156 27.4432 65.8325 27.3208 65.5709 27.1853C65.4901 27.1444 65.3908 27.1104 65.2891 27.0756C65.0888 27.0071 64.8795 26.9356 64.7858 26.8014C64.5253 26.4807 64.347 26.0867 64.1695 25.6945L64.1695 25.6944L64.1694 25.6943C64.101 25.5431 64.0327 25.3922 63.9599 25.2458C63.378 24.1358 62.8128 22.9041 62.3106 21.7302C62.1774 21.4415 62.0634 21.1529 61.9505 20.8673L61.9505 20.8672C61.7555 20.3741 61.5641 19.8897 61.2836 19.4285C59.2093 15.995 56.9566 13.9155 53.4943 11.8744C52.8176 11.4879 52.0242 11.3031 51.1749 11.1052C51.0902 11.0855 51.005 11.0657 50.9194 11.0455L49.4091 10.9655C49.2179 10.8814 49.0265 10.7118 48.8438 10.5499L48.8437 10.5499C48.7185 10.4389 48.5973 10.3315 48.4829 10.2577C47.3342 9.53098 44.3768 7.95593 43.5319 10.0355C43.0798 11.1275 43.9345 12.2042 44.5024 12.9196C44.6181 13.0653 44.7218 13.196 44.8002 13.3088C44.8705 13.4039 44.9451 13.5017 45.0213 13.6016L45.0215 13.6018C45.3161 13.9882 45.635 14.4064 45.825 14.8239C45.8976 14.9996 45.9434 15.1808 45.9899 15.3645L45.9899 15.3646C46.0342 15.5398 46.0791 15.7173 46.1483 15.8945C46.2252 16.1067 46.301 16.3246 46.3774 16.5447L46.3775 16.545L46.3776 16.545C46.6214 17.2467 46.8729 17.9704 47.1952 18.6017C47.4161 19.0246 47.6569 19.469 47.9393 19.8518C47.9933 19.9266 48.0606 19.9874 48.1286 20.0489C48.2643 20.1714 48.4027 20.2965 48.4436 20.5396C48.2604 20.8022 48.1873 21.1521 48.1139 21.5039C48.0748 21.691 48.0356 21.8787 47.9797 22.0541C47.2555 24.3364 47.5384 27.1637 48.5648 28.8409C48.8859 29.3459 49.6521 30.4576 50.6769 30.0315C51.3261 29.7716 51.4079 29.1082 51.4975 28.382C51.533 28.0933 51.5699 27.7947 51.644 27.5076C51.6655 27.42 51.6742 27.3433 51.6821 27.2734C51.6962 27.1488 51.7079 27.0462 51.7852 26.9436V26.9831C51.8624 27.1385 51.9398 27.2923 52.0168 27.4454L52.017 27.4458C52.2201 27.8495 52.4209 28.2485 52.6096 28.6593C53.234 29.6482 54.3213 30.6788 55.227 31.3638C55.4031 31.4973 55.5659 31.6654 55.731 31.8359L55.731 31.8359C56.0179 32.1323 56.3119 32.4359 56.6953 32.5777V32.5171H56.6554C56.5747 32.3977 56.4695 32.3217 56.3611 32.2435L56.361 32.2435C56.3051 32.2031 56.2483 32.1622 56.1936 32.1143C55.8305 31.7504 55.4286 31.306 55.1468 30.9026C54.303 29.7709 53.5562 28.5181 52.8935 27.2253C52.5969 26.6517 52.3376 26.0293 52.0956 25.4481L52.0282 25.2864C51.9836 25.1978 51.9553 25.0926 51.9274 24.989C51.8793 24.8101 51.8324 24.6357 51.7044 24.5586C51.5992 24.7128 51.4773 24.8599 51.3537 25.0089L51.3536 25.009L51.3536 25.009C51.1215 25.289 50.8835 25.576 50.7394 25.9309C50.4372 26.6172 50.3486 27.428 50.2548 28.2861C50.2297 28.5157 50.2042 28.7487 50.1742 28.9837L50.095 29.0226C49.5119 28.8756 49.2746 28.3118 49.0533 27.786L49.053 27.7853C49.031 27.7331 49.0092 27.6813 48.9872 27.6303C48.3843 26.1953 48.283 23.8919 48.8062 22.2363C48.8331 22.1551 48.8771 22.0403 48.929 21.9051L48.9292 21.9047C49.1479 21.335 49.506 20.4021 49.3105 20.0762C49.2344 19.8335 49.0472 19.6564 48.8637 19.4828C48.755 19.38 48.6475 19.2784 48.5654 19.1651C48.3057 18.7823 48.0212 18.2979 47.8401 17.8729C47.614 17.3432 47.4404 16.7866 47.2663 16.2285C47.0689 15.5953 46.8708 14.96 46.5944 14.3594C46.396 13.9293 46.0782 13.4869 45.7822 13.0749C45.7158 12.9825 45.6506 12.8916 45.588 12.8027C45.4584 12.6187 45.3245 12.453 45.1923 12.2895C44.933 11.9686 44.68 11.6556 44.4791 11.2277C44.3789 11.0055 44.2383 10.6421 44.3994 10.4004C44.4387 10.2382 44.5206 10.1777 44.6812 10.1371C44.942 9.91596 45.6871 10.1971 45.9484 10.3188C46.6947 10.6216 47.3186 10.9044 47.9414 11.3283C48.0332 11.3943 48.1271 11.4795 48.2246 11.568L48.2246 11.568C48.4264 11.7511 48.6432 11.9478 48.887 12.016H49.3105C49.6056 12.0806 49.918 12.0941 50.2281 12.1074C50.5935 12.1232 50.9558 12.1389 51.283 12.2377C52.3493 12.5816 53.3154 13.0861 54.1818 13.6306C56.8181 15.3083 58.9921 17.6923 60.4598 20.5396C60.5958 20.8015 60.6876 21.051 60.7814 21.3057L60.7814 21.3057C60.8537 21.5022 60.9272 21.7017 61.0229 21.9124C61.2431 22.4269 61.4904 22.9467 61.7362 23.4633C61.9636 23.9413 62.1897 24.4166 62.392 24.8825C62.4313 24.9707 62.4704 25.0591 62.5096 25.1475C62.8916 26.01 63.2741 26.8736 63.8219 27.5887C64.0337 27.8867 64.6949 28.0851 65.2574 28.2539L65.2574 28.2539C65.4949 28.3251 65.7148 28.3911 65.8758 28.457C66.033 28.5279 66.2244 28.5958 66.4208 28.6654C66.7263 28.7737 67.044 28.8863 67.2643 29.0215C67.9491 29.4449 68.6312 29.931 69.2751 30.3965C69.3561 30.4578 69.4811 30.5358 69.6235 30.6248C70.0445 30.8877 70.6183 31.246 70.663 31.5482ZM50.1316 13.995C49.8537 13.9921 49.5767 14.0263 49.3078 14.0967V14.1372H49.3466C49.4456 14.3344 49.5893 14.4947 49.732 14.6538C49.8229 14.7551 49.9133 14.856 49.9915 14.9656C50.079 15.1403 50.1602 15.3142 50.2414 15.488L50.2415 15.4883C50.3108 15.6367 50.3801 15.7851 50.4532 15.934L50.492 15.894C50.776 15.6923 50.9172 15.3689 50.9172 14.8839C50.8494 14.8048 50.8133 14.7267 50.7774 14.6486C50.7484 14.5859 50.7195 14.5232 50.6742 14.46C50.6022 14.3373 50.4777 14.252 50.3545 14.1676C50.2747 14.113 50.1955 14.0588 50.1316 13.995ZM18.1891 53.7185H15.4304C15.3328 49.0716 15.0641 44.7029 14.6248 40.6093H14.6003L10.4001 53.7185H8.29967L4.12447 40.6093H4.10048C3.79075 44.5396 3.59564 48.9093 3.51461 53.7185H1C1.16206 47.8704 1.56935 42.3877 2.22025 37.27H5.63953L9.61908 49.3562H9.6436L13.6477 37.27H16.9193C17.6358 43.2644 18.059 48.7476 18.1891 53.7185ZM30.1533 41.5829C29.0301 47.6656 27.5481 52.0853 25.7089 54.8442C24.2759 56.9679 22.706 58.0308 20.9963 58.0308C20.5406 58.0308 19.9781 57.8935 19.3118 57.6212V56.1545C19.6375 56.2013 20.0197 56.2279 20.459 56.2279C21.2576 56.2279 21.8994 56.0087 22.3888 55.5693C22.9741 55.0341 23.2668 54.4324 23.2668 53.7669C23.2668 53.3105 23.0386 52.3774 22.5834 50.9644L19.5559 41.5823H22.2662L24.4391 48.5992C24.9274 50.1925 25.131 51.3049 25.0495 51.9385C26.2377 48.7716 27.0678 45.3185 27.5406 41.5818H30.1533V41.5829Z" fill="#5382A1"></path>
    <path fill-rule="evenodd" clip-rule="evenodd" d="M57.2711 53.9686L54.2107 52.472C54.4821 52.2512 54.7416 52.0121 54.9753 51.7352C56.2761 50.2211 56.9249 47.9818 56.9249 45.0159C56.9249 39.5583 54.7637 36.8282 50.4396 36.8282C48.3193 36.8282 46.6653 37.5208 45.4824 38.9064C44.1827 40.4216 43.5339 42.6529 43.5339 45.6028C43.5339 48.5025 44.1089 50.6297 45.2595 51.9791C46.3121 53.2014 47.8988 53.8134 50.0207 53.8134C50.8122 53.8134 51.5385 53.7173 52.2003 53.5236L56.1846 55.8221L57.2711 53.9686ZM67.2578 53.57H59.343V37.0737H62.0055V51.5394H67.2578V53.57ZM46.3462 45.0901C46.3462 47.4691 46.6832 49.1946 47.3573 50.2691C47.9825 51.2658 48.9591 51.7614 50.2923 51.7609C52.8401 51.7609 54.1145 49.6668 54.1145 45.479C54.1145 43.1331 53.7758 41.4231 53.1028 40.347C52.4782 39.3546 51.5015 38.8573 50.169 38.8573C47.6196 38.8573 46.3462 40.9365 46.3462 45.0901ZM42.3737 48.9977C42.3737 50.3966 41.8557 51.5443 40.8209 52.4433C39.785 53.3385 38.3959 53.7872 36.6552 53.7872C35.027 53.7872 33.4483 53.2718 31.9203 52.2464L32.6359 50.8298C33.9507 51.4824 35.1411 51.8068 36.2099 51.8068C37.213 51.8068 37.9969 51.5864 38.5655 51.1494C39.1335 50.7109 39.4722 50.0957 39.4722 49.3178C39.4722 48.3377 38.7825 47.5001 37.5172 46.7985C36.3504 46.1635 34.0169 44.8361 34.0169 44.8361C32.7522 43.9227 32.119 42.9421 32.119 41.3265C32.119 39.9895 32.5912 38.9101 33.5361 38.089C34.4821 37.2647 35.7027 36.8539 37.199 36.8539C38.7442 36.8539 40.149 37.2642 41.4142 38.0762L40.7724 39.4933C39.6902 39.0376 38.622 38.8098 37.5683 38.8098C36.7149 38.8098 36.0559 39.0131 35.5977 39.4213C35.1357 39.8278 34.8509 40.348 34.8509 40.9861C34.8509 41.9614 35.5552 42.8097 36.8549 43.5252C38.0373 44.1612 40.4289 45.5116 40.4289 45.5116C41.726 46.4234 42.3737 47.3949 42.3737 48.9977ZM69.1899 53.6136H69.6351V51.7798H70.2178V51.405H68.5827V51.7798H69.1888L69.1899 53.6136ZM72.5791 53.6136H72.9998V51.4055H72.3687L71.854 52.9123L71.2946 51.4055H70.6869V53.6136H71.0842V51.9336H71.1065L71.6925 53.6136H71.9953L72.5791 51.9336V53.6136Z" fill="#FFA518"></path>
  </symbol>
  <symbol fill="none" xmlns="http://www.w3.org/2000/svg" viewBox="0 0 72 72" id="node">
    <g clip-path="url(#clip0_13689_20219)">
      <path fill-rule="evenodd" clip-rule="evenodd" d="M15.4517 36.7206C15.4517 36.4215 15.2938 36.1467 15.0354 35.998L8.14153 32.0362C8.02516 31.9679 7.89479 31.9321 7.76263 31.9272H7.69134C7.55918 31.9321 7.42881 31.9679 7.31048 32.0362L0.416974 35.998C0.16014 36.1475 -1.52588e-05 36.4223 -1.52588e-05 36.7214L0.0151214 47.3925C0.0151214 47.5404 0.0916182 47.6786 0.221826 47.7517C0.348778 47.8298 0.508282 47.8298 0.635234 47.7517L4.73351 45.4075C4.9923 45.2537 5.15018 44.9819 5.15018 44.6857V39.7005C5.15018 39.403 5.30805 39.1282 5.56603 38.9803L7.31081 37.9766C7.44036 37.9018 7.58261 37.8648 7.72747 37.8648C7.87005 37.8648 8.01555 37.9015 8.14153 37.9764L9.8855 38.9798C10.1436 39.1278 10.3022 39.4025 10.3022 39.7V44.6849C10.3022 44.9807 10.4622 45.2539 10.7196 45.4067L14.8153 47.7493C14.9439 47.8257 15.1039 47.8257 15.232 47.7493C15.3583 47.6761 15.4384 47.5379 15.4384 47.39L15.4517 36.7206ZM47.9821 42.2766C47.9821 42.3509 47.9425 42.4196 47.8779 42.4564L45.5101 43.8197C45.4458 43.8566 45.3664 43.8566 45.3022 43.8197L42.9341 42.4564C42.869 42.4195 42.8299 42.3507 42.8299 42.2766V39.5461C42.8299 39.4716 42.869 39.403 42.9325 39.3656L45.299 38C45.3641 37.9626 45.4438 37.9626 45.5089 38L47.8771 39.3656C47.9422 39.403 47.9813 39.4716 47.9813 39.5461L47.9821 42.2766ZM48.6217 22.0526C48.4925 21.9808 48.3353 21.9827 48.2077 22.057C48.0807 22.1318 48.0023 22.2684 48.0023 22.4163V32.9833C48.0023 33.0873 47.9469 33.1833 47.8567 33.2353C47.7672 33.2873 47.6557 33.2873 47.5654 33.2353L45.8385 32.2418C45.5814 32.0932 45.2646 32.0932 45.0065 32.2418L38.1104 36.2171C37.8527 36.3651 37.6937 36.6398 37.6937 36.9357V44.8886C37.6937 45.1861 37.8527 45.4592 38.1104 45.6087L45.0065 49.5868C45.264 49.7347 45.5811 49.7347 45.8394 49.5868L52.7355 45.6071C52.9926 45.4576 53.1521 45.1844 53.1521 44.8869V25.0665C53.1521 24.7648 52.9877 24.4873 52.7241 24.3398L48.6217 22.0526ZM71.5859 39.4742C71.8421 39.3256 71.9998 39.0512 71.9998 38.7553V36.8279C71.9998 36.5314 71.8419 36.2578 71.5853 36.1085L64.7331 32.1353C64.4743 31.9858 64.1569 31.9858 63.8981 32.1353L57.0037 36.1102C56.7449 36.2597 56.587 36.5328 56.587 36.8303V44.78C56.587 45.0791 56.7481 45.3555 57.0069 45.5034L63.8574 49.4034C64.1097 49.5481 64.419 49.5497 64.6745 49.4083L68.8184 47.108C68.9486 47.0348 69.0316 46.8966 69.0316 46.7471C69.0316 46.5975 68.9518 46.4577 68.8216 46.3845L61.8848 42.4081C61.7546 42.3349 61.6749 42.1967 61.6749 42.0488V39.555C61.6749 39.4061 61.753 39.2689 61.8832 39.1947L64.0414 37.9511C64.1699 37.8763 64.3278 37.8763 64.4564 37.9511L66.6162 39.1947C66.7448 39.2679 66.8246 39.4061 66.8246 39.554V41.5146C66.8246 41.6625 66.9043 41.8007 67.0329 41.8755C67.1615 41.9487 67.321 41.9487 67.4495 41.8739L71.5859 39.4742Z" fill="#988B8B"></path>
      <path fill-rule="evenodd" clip-rule="evenodd" d="M64.2148 39.1023C64.2636 39.0735 64.3248 39.0735 64.3743 39.1023L65.6976 39.8647C65.747 39.8933 65.7773 39.946 65.7773 40.0029V41.5294C65.7773 41.5863 65.747 41.639 65.6976 41.6676L64.3743 42.4301C64.3248 42.4588 64.2636 42.4588 64.2148 42.4301L62.8924 41.6676C62.8419 41.639 62.811 41.5863 62.811 41.5294V40.0029C62.811 39.946 62.8403 39.8933 62.8908 39.8647L64.2148 39.1023Z" fill="#689F63"></path>
      <mask id="mask0_13689_20219" maskUnits="userSpaceOnUse" x="18" y="32" width="17" height="18">
        <path d="M26.1594 32.175L19.3023 36.1282C19.0455 36.2761 18.8879 36.5492 18.8879 36.8445V44.7564C18.8879 45.0518 19.0455 45.3247 19.3023 45.4727L26.1598 49.429C26.4162 49.5764 26.7323 49.5764 26.9883 49.429L33.8447 45.4727C34.1002 45.3247 34.2581 45.0516 34.2581 44.7564V36.8445C34.2581 36.5492 34.1002 36.2761 33.8431 36.1282L26.9876 32.175C26.8591 32.1014 26.7158 32.0645 26.5726 32.0645C26.4294 32.0645 26.2861 32.1014 26.1576 32.175" fill="white"></path>
      </mask>
      <g mask="url(#mask0_13689_20219)">
        <path d="M41.1874 35.4569L21.8654 25.997L11.9583 46.1839L31.2798 55.6443L41.1874 35.4569Z" fill="url(#paint0_linear_13689_20219)"></path>
      </g>
      <mask id="mask1_13689_20219" maskUnits="userSpaceOnUse" x="19" y="32" width="16" height="18">
        <path d="M19.0578 45.2588C19.1234 45.3438 19.2055 45.4174 19.302 45.4727L25.1841 48.8663L26.1639 49.4288C26.3104 49.5134 26.4774 49.5491 26.6415 49.5369C26.6961 49.5325 26.7508 49.5223 26.8042 49.5072L34.0363 36.2805C33.9809 36.2204 33.9161 36.17 33.8436 36.1277L29.3537 33.538L26.9803 32.1741C26.9129 32.135 26.8399 32.1074 26.7655 32.0879L19.0578 45.2588Z" fill="white"></path>
      </mask>
      <g mask="url(#mask1_13689_20219)">
        <path d="M10.7037 38.255L24.347 56.6989L42.3905 43.3835L28.7464 24.9401L10.7037 38.255Z" fill="url(#paint1_linear_13689_20219)"></path>
      </g>
      <mask id="mask2_13689_20219" maskUnits="userSpaceOnUse" x="19" y="32" width="16" height="18">
        <path d="M26.4907 32.069C26.3757 32.0804 26.2632 32.1162 26.1595 32.175L19.322 36.1168L26.695 49.5304C26.7975 49.5158 26.8985 49.4816 26.9896 49.429L33.8466 45.4727C34.0582 45.3501 34.2031 45.1427 34.247 44.9076L26.7308 32.0825C26.6755 32.0716 26.6201 32.0659 26.5632 32.0659C26.5404 32.0659 26.5176 32.0671 26.4948 32.0692" fill="white"></path>
      </mask>
      <g mask="url(#mask2_13689_20219)">
        <path d="M19.3218 32.0659V49.5307H34.2441V32.0659H19.3218Z" fill="url(#paint2_linear_13689_20219)"></path>
      </g>
    </g>
    <defs>
      <linearGradient id="paint0_linear_13689_20219" x1="31.5206" y1="30.7121" x2="21.6328" y2="50.9068" gradientUnits="userSpaceOnUse">
        <stop offset="0.3" stop-color="#3E863D"></stop>
        <stop offset="0.5" stop-color="#55934F"></stop>
        <stop offset="0.8" stop-color="#5AAD45"></stop>
      </linearGradient>
      <linearGradient id="paint1_linear_13689_20219" x1="17.6072" y1="47.5827" x2="35.6364" y2="34.2456" gradientUnits="userSpaceOnUse">
        <stop offset="0.57" stop-color="#3E863D"></stop>
        <stop offset="0.72" stop-color="#619857"></stop>
        <stop offset="1" stop-color="#76AC64"></stop>
      </linearGradient>
      <linearGradient id="paint2_linear_13689_20219" x1="19.3269" y1="40.7988" x2="34.2469" y2="40.7988" gradientUnits="userSpaceOnUse">
        <stop offset="0.16" stop-color="#6BBF47"></stop>
        <stop offset="0.38" stop-color="#79B461"></stop>
        <stop offset="0.47" stop-color="#75AC64"></stop>
        <stop offset="0.7" stop-color="#659E5A"></stop>
        <stop offset="0.9" stop-color="#3E863D"></stop>
      </linearGradient>
      <clipPath id="clip0_13689_20219">
        <rect width="72" height="72" fill="white"></rect>
      </clipPath>
    </defs>
  </symbol>
  <symbol fill="none" xmlns="http://www.w3.org/2000/svg" viewBox="0 0 45 45" id="productivity">
    <g clip-path="url(#clip0_9232_1453)">
      <path d="M7.82556 33.9004C5.22594 31.927 4.98223 28.1426 7.44258 26.053C7.37295 25.4494 7.2685 24.9386 7.25689 24.4046C7.22208 23.6152 7.23368 22.8142 7.25689 22.0248C7.2685 21.3051 7.60505 20.922 8.30138 20.7711C8.81202 20.655 9.31105 20.5157 9.83329 20.4461C10.1931 20.3996 10.3323 20.2023 10.4948 19.9004C10.7269 19.4477 10.7153 19.0878 10.3904 18.6932C10.0886 18.3217 9.8449 17.8922 9.60119 17.4742C9.26463 16.9054 9.29945 16.4643 9.75206 15.9999C10.4832 15.2454 11.2143 14.514 11.9687 13.7827C12.4213 13.3416 12.8855 13.3067 13.4426 13.6434C13.8256 13.8756 14.2085 14.0961 14.5567 14.3747C14.9977 14.723 15.4271 14.8623 15.9029 14.4908C16.1002 14.3399 16.3091 14.1426 16.3787 13.9336C16.5412 13.3996 16.6109 12.8424 16.7501 12.2968C16.9242 11.6119 17.2492 11.3333 17.9339 11.3217C18.9552 11.2985 19.988 11.2985 21.0093 11.3217C21.6824 11.3333 22.0422 11.6583 22.1931 12.2968C22.2975 12.7263 22.3904 13.1674 22.4716 13.597C22.6341 14.398 22.8894 14.6185 23.8178 14.7114C23.8178 12.7495 23.8178 10.7761 23.8178 8.73295C23.2492 8.73295 22.6921 8.75617 22.1466 8.72134C21.9261 8.70973 21.636 8.58204 21.5432 8.41952C21.4619 8.28021 21.5432 7.96678 21.6592 7.79265C22.9242 5.98171 24.2008 4.19398 25.489 2.39464C25.8836 1.83743 26.2085 1.84904 26.6147 2.41786C27.8681 4.18237 29.1331 5.94688 30.3633 7.723C30.4909 7.90874 30.5722 8.257 30.4909 8.44274C30.4329 8.59365 30.0847 8.69813 29.8642 8.70973C29.3304 8.74456 28.7965 8.72134 28.1815 8.72134C28.1815 9.38303 28.1815 9.97507 28.1815 10.5671C28.1815 11.8441 28.1931 13.121 28.1699 14.398C28.1582 14.8043 28.2975 15.0829 28.576 15.3615C29.8642 16.6268 29.8642 16.6732 28.8894 18.1824C28.7733 18.3565 28.6573 18.5422 28.5412 18.7164C28.0422 19.4825 28.3555 20.2487 29.2724 20.4461C29.7598 20.5505 30.2588 20.655 30.7463 20.7711C31.3149 20.9104 31.6515 21.2703 31.6631 21.8855C31.6631 22.9535 31.6747 24.0099 31.6631 25.0779C31.6515 25.7048 31.3381 26.0762 30.7114 26.2155C30.224 26.3316 29.7366 26.4825 29.2376 26.529C28.7501 26.5754 28.576 26.8424 28.3904 27.2487C28.2279 27.6202 28.2743 27.8988 28.4948 28.2006C28.7849 28.6069 29.0519 29.0364 29.3188 29.466C29.6902 30.058 29.6437 30.5456 29.1679 31.0447C28.7269 31.4975 28.2511 31.927 27.7056 32.4494C29.0403 32.8789 30.0847 33.5522 30.7811 34.4228C31.9416 34.1791 32.9977 33.9585 34.0422 33.7379C33.9029 33.6102 33.694 33.4245 33.4967 33.2271C32.5103 32.2172 32.1389 30.9635 32.1389 29.582C32.1389 25.1475 32.1389 20.7247 32.1389 16.2902C32.1389 16.058 32.1389 15.8374 32.1389 15.5356C31.5238 15.5356 30.9668 15.5472 30.4097 15.5356C29.7946 15.5124 29.5625 15.1061 29.9107 14.6069C31.1989 12.7728 32.4987 10.9502 33.8101 9.12764C34.1234 8.68652 34.4716 8.68652 34.7965 9.12764C36.108 10.9502 37.4078 12.7728 38.696 14.6069C39.0557 15.1177 38.8352 15.5124 38.2085 15.5356C37.6515 15.5588 37.0944 15.5356 36.4677 15.5356C36.4677 15.8142 36.4677 16.0116 36.4677 16.2205C36.4677 19.0066 36.4793 21.7927 36.4561 24.5787C36.4561 25.0315 36.5374 25.2288 37.0364 25.3449C39.0905 25.7976 40.5064 27.9917 40.2743 30.2786C40.135 31.718 39.4967 32.8905 38.1737 33.8772C38.5335 33.8772 38.7308 33.8772 38.9165 33.8772C41.7714 33.9004 43.988 36.0829 44.0229 38.9502C44.0345 40.32 44.0229 41.7014 44.0229 43.0713C44.0229 43.8258 43.872 43.9767 43.106 43.9767C35.6786 43.9767 28.2511 43.9767 20.8236 43.9767C14.8817 43.9767 8.95128 43.9767 3.00931 43.9767C2.16211 43.9767 2.03445 43.849 2.03445 43.0132C2.03445 41.6434 2.02285 40.262 2.03445 38.8922C2.08088 36.0945 4.29751 33.9121 7.08281 33.8888C7.25689 33.9004 7.46579 33.9004 7.82556 33.9004ZM17.9339 42.9203C17.9339 42.6766 17.9339 42.4792 17.9339 42.2703C17.9339 40.854 17.9339 39.4494 17.9339 38.0331C17.9339 37.6965 18.0267 37.4063 18.4329 37.383C18.8739 37.3714 18.9784 37.6616 18.9784 38.0331C18.9784 39.1592 18.9784 40.2736 18.9784 41.3996C18.9784 41.8988 18.9784 42.398 18.9784 42.9087C21.6824 42.9087 24.3169 42.9087 27.0209 42.9087C27.0209 42.665 27.0209 42.456 27.0209 42.247C27.0209 40.8888 27.0209 39.5422 27.0209 38.184C27.0209 37.8126 26.9977 37.3946 27.5316 37.383C28.0538 37.3714 28.0654 37.7777 28.0654 38.1608C28.0654 39.3565 28.0654 40.5638 28.0654 41.7595C28.0654 42.1426 28.0654 42.514 28.0654 42.9087C29.0867 42.9087 30.0267 42.9087 31.0016 42.9087C31.0016 41.33 31.0132 39.786 31.0016 38.2421C30.9784 35.5024 28.959 33.4129 26.2317 33.3548C24.0731 33.3084 21.9029 33.3084 19.7327 33.3548C17.3536 33.4013 15.3807 34.9917 15.1138 37.3482C14.9049 39.1708 15.0673 41.0398 15.0673 42.9203C15.9958 42.9203 16.9242 42.9203 17.9339 42.9203ZM30.5374 21.8507C29.9339 21.723 29.3536 21.5605 28.7733 21.4676C28.135 21.3631 27.694 21.0729 27.5083 20.4461C27.4503 20.2487 27.3691 20.0398 27.2646 19.854C27.0209 19.3897 27.1022 18.9601 27.3691 18.5422C27.6824 18.0779 28.0074 17.6135 28.2743 17.126C28.3555 16.9867 28.3207 16.6732 28.2163 16.5572C27.6244 15.9187 27.0093 15.3034 26.371 14.7114C26.2666 14.6185 25.9764 14.5953 25.8488 14.665C25.3265 14.9552 24.8623 15.3615 24.3169 15.5936C23.9687 15.7446 23.5161 15.6981 23.1215 15.6865C22.9242 15.6749 22.7385 15.524 22.5296 15.4543C21.9029 15.2686 21.5896 14.8391 21.4851 14.2006C21.4039 13.7014 21.3111 13.2139 21.1486 12.7379C21.1022 12.587 20.8584 12.3897 20.696 12.3781C19.872 12.3432 19.0364 12.3781 18.2008 12.3548C17.8642 12.3432 17.7134 12.4709 17.6553 12.796C17.5625 13.3416 17.4116 13.8872 17.3072 14.4444C17.2259 14.9087 16.959 15.199 16.5296 15.3731C16.2743 15.4776 16.019 15.5704 15.7753 15.6865C15.3111 15.9071 14.8817 15.8723 14.4639 15.582C14.0112 15.2802 13.547 15.0132 13.106 14.6998C12.8391 14.514 12.665 14.4908 12.4213 14.7462C11.8526 15.3499 11.2608 15.9419 10.6573 16.5107C10.4368 16.7197 10.402 16.8938 10.5876 17.1492C10.9126 17.6135 11.2724 18.0547 11.4813 18.5655C11.6321 18.9369 11.6205 19.4013 11.6089 19.8192C11.5973 20.0514 11.4116 20.2719 11.3304 20.5157C11.1563 21.0149 10.8198 21.3051 10.2975 21.4096C9.636 21.5373 8.9861 21.6998 8.27817 21.8507C8.27817 22.8723 8.26656 23.8822 8.28977 24.8805C8.28977 24.9966 8.46386 25.1824 8.57991 25.2056C8.85844 25.2636 9.14857 25.2752 9.43871 25.252C10.3207 25.1824 11.1447 25.3565 11.8526 25.8789C12.2936 26.1923 12.665 26.587 13.1292 26.9933C13.0364 26.7728 12.9668 26.6218 12.8971 26.4709C12.0731 24.5671 12.0151 22.6401 12.8159 20.7247C14.1737 17.4859 17.5277 15.791 21.0325 16.5107C24.2472 17.1724 26.6031 20.1907 26.5915 23.592C26.5915 23.8009 26.6147 24.0215 26.696 24.2072C26.9861 24.8457 27.3227 25.4726 27.636 26.1227C28.3787 25.2985 29.5741 25.5771 30.5141 25.1243C30.5374 24.0331 30.5374 22.9651 30.5374 21.8507ZM14.6379 35.3515C13.8836 35.2006 13.2453 34.9917 12.5954 34.9684C10.7965 34.922 8.9977 34.9452 7.19887 34.9568C4.79654 34.9684 3.07894 36.6749 3.05573 39.0779C3.04413 40.2039 3.05573 41.3184 3.05573 42.4444C3.05573 42.6069 3.07894 42.7694 3.09055 42.9087C4.07701 42.9087 4.98223 42.9087 5.92227 42.9087C5.92227 41.6434 5.91066 40.4245 5.92227 39.2056C5.92227 38.7993 5.783 38.2305 6.4097 38.2189C7.08281 38.1956 6.95515 38.7761 6.96676 39.2056C6.97836 40.4361 6.96676 41.6666 6.96676 42.9087C8.89326 42.9087 10.7501 42.9087 12.6534 42.9087C12.6534 41.5505 12.6534 40.2388 12.6534 38.927C12.6534 38.5439 12.6998 38.184 13.1757 38.1956C13.6399 38.2072 13.6979 38.5555 13.6979 38.9386C13.6979 40.0995 13.6979 41.2603 13.6979 42.4212C13.6979 42.5953 13.7327 42.7578 13.7443 42.9203C13.8023 42.9203 13.8604 42.9087 13.9184 42.9087C13.9184 41.6666 13.9416 40.4129 13.9184 39.1708C13.9184 37.9054 13.9764 36.6633 14.6379 35.3515ZM32.2317 42.9087C32.2434 42.7694 32.2782 42.6185 32.2782 42.4792C32.2782 41.2603 32.2782 40.0414 32.2782 38.8225C32.2782 38.4626 32.4174 38.1956 32.8004 38.1956C33.195 38.184 33.3227 38.4626 33.3227 38.8109C33.3227 39.3333 33.3227 39.8557 33.3227 40.3781C33.3227 41.2255 33.3227 42.0613 33.3227 42.9087C35.2724 42.9087 37.1292 42.9087 39.0093 42.9087C39.0093 41.9917 39.0093 41.121 39.0093 40.2504C39.0093 39.7628 38.9977 39.2868 39.0093 38.7993C39.0209 38.451 39.1718 38.1376 39.5548 38.2189C39.7521 38.2653 39.9377 38.5671 40.0422 38.7993C40.1234 38.9618 40.0538 39.1824 40.0538 39.3681C40.0538 40.5406 40.0538 41.7131 40.0538 42.9203C41.0287 42.9203 41.9455 42.9203 42.8623 42.9203C42.8623 41.388 43.0016 39.8673 42.8275 38.393C42.5954 36.2918 40.9358 34.9684 38.8352 34.9568C37.0248 34.9452 35.2027 34.922 33.3923 34.9684C32.7424 34.9917 32.0925 35.2006 31.3729 35.3515C32.5451 37.8938 31.8256 40.4477 32.2317 42.9087ZM19.2569 27.4925C19.4194 28.1194 19.5006 28.781 19.7559 29.3731C20.2782 30.6268 21.195 31.4859 22.576 31.6832C23.9223 31.8689 24.9784 31.2885 25.7791 30.2205C27.0093 28.5837 26.9281 26.0762 25.6167 24.5091C24.1776 22.791 21.8217 22.791 20.3826 24.5207C19.6747 25.3681 19.3497 26.3665 19.2569 27.4925ZM34.2627 10.2537C33.2414 11.6931 32.2782 13.0514 31.2453 14.514C31.6167 14.514 31.8256 14.514 32.0461 14.514C33.1254 14.514 33.1602 14.5489 33.1602 15.6169C33.1602 19.0646 33.1602 22.5008 33.1602 25.9485C33.1602 26.1575 33.1602 26.3548 33.1602 26.5754C33.7521 26.2039 34.2511 25.8092 34.8198 25.5655C35.2724 25.3797 35.4116 25.1592 35.4116 24.6832C35.3884 21.6417 35.4 18.6119 35.4 15.5704C35.4 14.5489 35.4464 14.514 36.4329 14.514C36.6766 14.514 36.9203 14.514 37.3033 14.514C36.2472 13.0398 35.284 11.6815 34.2627 10.2537ZM6.68823 29.8955C6.86231 30.4759 6.96676 31.1028 7.23368 31.6484C7.72111 32.6351 8.49867 33.2968 9.65921 33.3665C10.8198 33.4361 11.6553 32.8905 12.2704 31.9502C13.1524 30.5804 13.0364 28.6301 12.0035 27.3996C10.8662 26.0298 9.00931 25.9601 7.79074 27.2371C7.09442 27.9684 6.79268 28.8623 6.68823 29.8955ZM39.3575 29.9303C39.1486 29.2106 39.0441 28.5953 38.7772 28.0497C38.3014 27.0514 37.5006 26.4013 36.3517 26.32C35.1911 26.2388 34.3207 26.796 33.7521 27.7479C32.9049 29.1641 32.9049 30.6268 33.7985 32.0199C34.9938 33.854 37.3729 33.8656 38.5451 32.0082C38.9513 31.3698 39.1022 30.592 39.3575 29.9303ZM23.1099 22.1409C22.7153 20.5505 20.812 19.3432 19.0944 19.5522C16.9474 19.8192 15.4503 21.4908 15.4735 23.5804C15.4967 25.3101 16.8314 27.063 18.2588 27.2255C19.0016 23.7661 20.2201 22.4776 23.1099 22.1409ZM25.5122 22.9187C25.2685 19.5986 22.2279 17.1144 18.8043 17.4278C15.7056 17.718 12.99 20.5041 13.3613 24.2189C13.6283 26.9004 16.3671 29.6865 18.5838 29.466C18.4445 28.5257 18.4445 28.5257 17.6321 28.2006C15.4735 27.33 14.1853 25.194 14.4523 22.9419C14.7076 20.7363 16.4368 18.9137 18.5722 18.5771C20.9629 18.2056 23.1215 19.32 24.0267 21.5373C24.3285 22.2802 24.7695 22.6749 25.5122 22.9187ZM24.8739 14.0497C25.6399 13.4693 26.3014 13.1442 27.0673 13.8524C27.0789 13.5854 27.0905 13.4344 27.0905 13.2835C27.0905 11.6931 27.0905 10.1144 27.0905 8.524C27.0905 7.87391 27.2646 7.71139 27.9145 7.69978C28.2395 7.69978 28.5528 7.69978 29.0054 7.69978C27.961 6.2371 26.9977 4.87889 25.9764 3.45103C24.9668 4.87889 23.9919 6.2371 22.9474 7.69978C23.4348 7.69978 23.7946 7.69978 24.1544 7.69978C24.6186 7.69978 24.8623 7.90874 24.8623 8.40791C24.8507 9.1973 24.8623 9.99829 24.8623 10.7877C24.8739 11.8208 24.8739 12.854 24.8739 14.0497ZM13.547 27.655C14.313 30.0696 13.9532 32.1708 12.0151 33.7611C13.0596 33.9817 14.1157 34.2023 15.2646 34.4461C16.6225 32.7512 18.5838 32.1708 20.5219 32.2868C20.1969 31.8805 19.7907 31.3582 19.3613 30.859C19.2569 30.7429 19.0364 30.6849 18.8623 30.6732C16.9474 30.4875 15.3575 29.6865 14.0693 28.2587C13.8952 28.0613 13.7211 27.8524 13.547 27.655ZM27.5548 28.8507C27.1834 30.3018 26.3942 31.4046 25.1408 32.2288C25.9996 32.4378 26.6379 32.2752 27.1138 31.6019C27.2182 31.451 27.3807 31.3233 27.5199 31.1956C28.5412 30.1741 28.5412 30.1741 27.7056 29.0016C27.6824 28.9668 27.6476 28.9436 27.5548 28.8507Z" fill="#1B76FE"></path>
    </g>
    <defs>
      <clipPath id="clip0_9232_1453">
        <rect width="42" height="42" fill="white" transform="translate(2 2)"></rect>
      </clipPath>
    </defs>
  </symbol>
  <symbol fill="none" xmlns="http://www.w3.org/2000/svg" viewBox="0 0 72 72" id="python">
    <path fill-rule="evenodd" clip-rule="evenodd" d="M31.458 11.483C33.1724 11.1869 34.5908 11.0067 36.6368 11.0001C38.6657 10.9922 41.0564 11.4725 40.9762 11.4803C44.2116 12.0185 46.5261 14.4184 46.5261 17.6276V28.9247C46.5261 32.2338 43.2669 34.6837 39.9473 34.6837H30.4264C26.3765 34.6837 22.8424 38.5389 22.8424 42.4415V49.1571H18.0636C14.5939 49.1571 12.6953 46.5321 11.8335 43.0309C10.698 38.3363 10.7466 35.5206 11.8335 31.0246C12.7953 27.1076 15.8307 25.4734 19.2991 25.4734H25.0226H37.3144V22.8419H25.4726V17.6276C25.4726 14.2158 26.3949 12.3645 31.458 11.483ZM32.0527 18.2394C32.0527 17.1539 31.1593 16.2631 30.079 16.2631C28.9777 16.2631 28.1054 17.1579 28.1054 18.2394C28.1054 19.3368 28.9777 20.2104 30.079 20.2104C31.1593 20.2104 32.0527 19.3354 32.0527 18.2394Z" fill="white"></path>
    <path fill-rule="evenodd" clip-rule="evenodd" d="M31.458 11.483C33.1724 11.1869 34.5908 11.0067 36.6368 11.0001C38.6657 10.9922 41.0564 11.4725 40.9762 11.4803C44.2116 12.0185 46.5261 14.4184 46.5261 17.6276V28.9247C46.5261 32.2338 43.2669 34.6837 39.9473 34.6837H30.4264C26.3765 34.6837 22.8424 38.5389 22.8424 42.4415V49.1571H18.0636C14.5939 49.1571 12.6953 46.5321 11.8335 43.0309C10.698 38.3363 10.7466 35.5206 11.8335 31.0246C12.7953 27.1076 15.8307 25.4734 19.2991 25.4734H25.0226H37.3144V22.8419H25.4726V17.6276C25.4726 14.2158 26.3949 12.3645 31.458 11.483ZM32.0527 18.2394C32.0527 17.1539 31.1593 16.2631 30.079 16.2631C28.9777 16.2631 28.1054 17.1579 28.1054 18.2394C28.1054 19.3368 28.9777 20.2104 30.079 20.2104C31.1593 20.2104 32.0527 19.3354 32.0527 18.2394Z" fill="url(#paint0_linear_13689_20307)"></path>
    <path fill-rule="evenodd" clip-rule="evenodd" d="M40.5407 60.5161C38.8263 60.8122 37.4079 60.9925 35.3619 60.999C33.333 61.0069 30.9422 60.5267 31.0225 60.5188C27.7871 59.9806 25.4726 57.5807 25.4726 54.3716V43.0745C25.4726 39.7653 28.7318 37.3154 32.0514 37.3154H41.5723C45.6222 37.3154 49.1563 33.4602 49.1563 29.5577V22.842H53.9351C57.4048 22.842 59.3034 25.467 60.1665 28.9682C61.302 33.6628 61.2534 36.4786 60.1665 40.9745C59.2047 44.8915 56.1693 46.5257 52.7009 46.5257H46.9774H34.6843V49.1572H46.5261V54.3716C46.5261 57.7833 45.6037 59.6346 40.5407 60.5161ZM39.9474 53.7597C39.9474 54.8452 40.8408 55.7359 41.9211 55.7359C43.021 55.7359 43.8947 54.8412 43.8947 53.7597C43.8947 52.6623 43.0224 51.7887 41.9211 51.7887C40.8408 51.7887 39.9474 52.6636 39.9474 53.7597Z" fill="white"></path>
    <path fill-rule="evenodd" clip-rule="evenodd" d="M40.5407 60.5161C38.8263 60.8122 37.4079 60.9925 35.3619 60.999C33.333 61.0069 30.9422 60.5267 31.0225 60.5188C27.7871 59.9806 25.4726 57.5807 25.4726 54.3716V43.0745C25.4726 39.7653 28.7318 37.3154 32.0514 37.3154H41.5723C45.6222 37.3154 49.1563 33.4602 49.1563 29.5577V22.842H53.9351C57.4048 22.842 59.3034 25.467 60.1665 28.9682C61.302 33.6628 61.2534 36.4786 60.1665 40.9745C59.2047 44.8915 56.1693 46.5257 52.7009 46.5257H46.9774H34.6843V49.1572H46.5261V54.3716C46.5261 57.7833 45.6037 59.6346 40.5407 60.5161ZM39.9474 53.7597C39.9474 54.8452 40.8408 55.7359 41.9211 55.7359C43.021 55.7359 43.8947 54.8412 43.8947 53.7597C43.8947 52.6623 43.0224 51.7887 41.9211 51.7887C40.8408 51.7887 39.9474 52.6636 39.9474 53.7597Z" fill="url(#paint1_linear_13689_20307)"></path>
    <defs>
      <linearGradient id="paint0_linear_13689_20307" x1="11" y1="11" x2="39.0622" y2="33.4807" gradientUnits="userSpaceOnUse">
        <stop stop-color="#5A9FD4"></stop>
        <stop offset="1" stop-color="#306998"></stop>
      </linearGradient>
      <linearGradient id="paint1_linear_13689_20307" x1="43.2363" y1="54.2361" x2="32.9568" y2="40.6175" gradientUnits="userSpaceOnUse">
        <stop stop-color="#FFD43B"></stop>
        <stop offset="1" stop-color="#FFE873"></stop>
      </linearGradient>
    </defs>
  </symbol>
  <symbol fill="none" xmlns="http://www.w3.org/2000/svg" viewBox="0 0 72 72" id="react">
    <path fill-rule="evenodd" clip-rule="evenodd" d="M10.0801 36.0774C10.0801 42.3774 21.4426 47.3274 35.9551 47.3274C50.4676 47.3274 61.8301 42.3774 61.8301 36.0774C61.8301 29.7774 50.4676 24.8274 35.9551 24.8274C21.4426 24.8274 10.0801 29.7774 10.0801 36.0774ZM12.33 36.0774C12.33 31.6899 21.78 27.0774 35.955 27.0774C50.13 27.0774 59.58 31.6899 59.58 36.0774C59.58 40.4649 50.13 45.0774 35.955 45.0774C21.78 45.0774 12.33 40.4649 12.33 36.0774Z" fill="#61DAFB"></path>
    <path fill-rule="evenodd" clip-rule="evenodd" d="M23.0171 58.4651C23.9171 59.0276 24.8171 59.2526 25.9421 59.2526C28.3046 59.2526 31.1171 58.0151 34.0421 55.7651C38.0921 52.6151 42.2546 47.6651 45.6296 41.8151C49.0046 35.9651 51.2546 29.8901 51.9296 24.7151C52.6046 19.2026 51.5921 15.2651 48.7796 13.6901C46.0796 12.1151 42.1421 13.1276 37.7546 16.5026C33.7046 19.6526 29.5421 24.6026 26.1671 30.4526C18.9671 43.0526 17.5046 55.3151 23.0171 58.4651ZM39.2173 18.1901C41.8048 16.1651 44.1673 15.1526 45.9673 15.1526C46.6423 15.1526 47.2048 15.3776 47.7673 15.6026C49.6798 16.7276 50.3548 19.8776 49.7923 24.3776C49.1173 29.2151 46.9798 34.9526 43.7173 40.5776C40.4548 46.2026 36.5173 50.9276 32.6923 53.9651C29.2048 56.6651 26.0548 57.6776 24.1423 56.5526C20.4298 54.4151 21.1048 43.8401 28.1923 31.5776C31.4548 25.9526 35.3923 21.2276 39.2173 18.1901Z" fill="#61DAFB"></path>
    <path fill-rule="evenodd" clip-rule="evenodd" d="M26.2797 41.7025C32.3547 52.39 40.4547 59.2525 46.0797 59.2525C47.0922 59.2525 47.9922 59.0275 48.8922 58.5775C51.7047 56.89 52.8297 53.065 52.0422 47.5525C51.3672 42.3775 49.1172 36.3025 45.7422 30.4525C38.4297 17.8525 28.5297 10.54 23.0172 13.69C17.5047 16.84 18.9672 29.1025 26.2797 41.7025ZM28.1923 40.5775C21.1048 28.315 20.4298 17.74 24.1423 15.6025C27.8548 13.465 36.6298 19.315 43.7173 31.5775C46.9798 37.2025 49.1173 42.94 49.7923 47.7775C50.3548 52.2775 49.6798 55.4275 47.7673 56.5525C44.0548 58.69 35.2798 52.84 28.1923 40.5775Z" fill="#61DAFB"></path>
    <path d="M35.9551 40.5774C38.4404 40.5774 40.4551 38.5627 40.4551 36.0774C40.4551 33.5921 38.4404 31.5774 35.9551 31.5774C33.4698 31.5774 31.4551 33.5921 31.4551 36.0774C31.4551 38.5627 33.4698 40.5774 35.9551 40.5774Z" fill="#61DAFB"></path>
  </symbol>
  <symbol fill="none" xmlns="http://www.w3.org/2000/svg" viewBox="0 0 45 45" id="Web">
    <g clip-path="url(#clip0_9232_1389)">
      <path d="M1.38583 16.0192C1.68367 16.0192 1.91278 16.0192 2.14189 16.0192C7.75501 16.0192 13.3681 16.0192 18.9813 16.0192C19.1302 16.0192 19.2905 16.0192 19.4395 16.0192C19.9779 16.0422 20.2872 16.3067 20.2872 16.7437C20.2872 17.1808 19.9664 17.4798 19.4624 17.5028C19.3135 17.5143 19.1531 17.5028 19.0042 17.5028C13.391 17.5028 7.77792 17.5028 2.1648 17.5028C1.93569 17.5028 1.70658 17.5028 1.38583 17.5028C1.38583 17.7213 1.38583 17.9283 1.38583 18.1238C1.38583 25.1049 1.38583 32.0744 1.38583 39.0554C1.38583 40.677 2.19916 41.5166 3.80291 41.5166C14.3647 41.5166 24.9151 41.5166 35.477 41.5166C37.0234 41.5166 37.894 40.6425 37.894 39.1014C37.894 34.8691 37.894 30.6253 37.894 26.3929C37.894 26.1974 37.894 26.0134 37.894 25.8179C37.9055 25.1969 38.1461 24.8748 38.5814 24.8978C38.9937 24.9208 39.2687 25.2774 39.2687 25.8524C39.2687 30.3147 39.2801 34.7886 39.2687 39.2509C39.2687 41.3556 37.6306 42.9772 35.3968 42.9772C25.0068 42.9312 14.6282 42.9542 4.23822 42.9542C3.80291 42.9542 3.35615 43.0462 2.93231 42.9772C1.19109 42.6897 0.0111919 41.2751 -0.0002634 39.4694C-0.0231741 37.4338 -0.0002634 35.4096 -0.0117188 33.374C-0.0117188 26.4965 -0.0117188 19.6074 -0.0117188 12.7299C-0.0117188 10.2917 1.47748 8.78513 3.91747 8.78513C9.78261 8.78513 15.6363 8.78513 21.5014 8.78513C21.7076 8.78513 21.9826 8.75062 22.1086 8.86563C22.3148 9.03814 22.5439 9.32567 22.5439 9.55568C22.5439 9.7512 22.246 10.0042 22.0284 10.1307C21.868 10.2227 21.616 10.1652 21.4098 10.1652C16.4267 10.1652 11.4436 10.2112 6.46055 10.1537C1.36292 10.0962 1.27128 10.2457 1.38583 15.3061C1.38583 15.5131 1.38583 15.7201 1.38583 16.0192Z" fill="#1B76FE"></path>
      <path d="M39.0283 23.6095C38.6732 23.46 38.2951 23.3335 37.9515 23.138C37.6536 22.9655 37.4016 22.724 37.1381 22.5054C36.279 21.8269 35.4198 22.1719 35.2595 23.253C35.1907 23.667 35.1449 24.0926 35.0533 24.4951C34.8585 25.3577 34.1827 25.9212 33.3121 25.9672C31.1012 26.0937 30.62 25.7027 30.242 23.4945C30.1618 23.0345 30.2306 22.5054 29.5662 22.2984C29.1194 22.1604 28.7757 22.1144 28.4206 22.4594C28.1686 22.701 27.8937 22.8965 27.5958 23.0805C27.3553 23.23 27.1033 23.3565 26.8398 23.46C25.5912 23.9776 23.1512 21.6429 23.8728 20.2628C24.1478 19.7452 24.5029 19.2737 24.8466 18.7907C25.3048 18.1466 24.984 17.238 24.2051 17.0885C23.8156 17.008 23.4146 16.962 23.0137 16.893C21.914 16.7205 21.3298 16.0535 21.3068 14.9379C21.3068 14.5583 21.2954 14.1673 21.3068 13.7878C21.3527 12.8907 21.9369 12.2467 22.819 12.0857C23.2657 12.0052 23.7125 11.8901 24.1707 11.8556C24.5487 11.8211 24.6976 11.6026 24.8809 11.3036C25.1673 10.8091 25.1329 10.4295 24.732 10.027C24.4914 9.78549 24.3196 9.47497 24.1134 9.21045C23.6667 8.64691 23.5636 8.00286 23.8728 7.38181C24.4112 6.31223 25.637 5.02413 26.8627 5.57617C27.4126 5.81769 27.8708 6.25473 28.3519 6.62275C28.9705 7.08279 29.9442 6.70326 30.0816 5.9327C30.1618 5.46117 30.2191 4.98963 30.3337 4.5181C30.5169 3.73604 31.0095 3.1955 31.7885 3.06899C32.3956 2.96548 33.0486 2.97698 33.6672 3.06899C34.4347 3.1955 34.8814 3.74754 35.0533 4.50659C35.1449 4.92063 35.2022 5.33466 35.2595 5.74869C35.4084 6.74926 36.2446 7.08279 37.0694 6.46174C37.3787 6.23172 37.6765 6.00171 37.9858 5.77169C38.5815 5.32316 39.2803 5.21965 39.8531 5.63368C40.4716 6.08221 41.033 6.65726 41.4912 7.2783C41.9379 7.89935 41.7317 8.6009 41.3308 9.21045C41.1475 9.48647 40.9642 9.76249 40.7466 9.98101C40.3227 10.418 40.2425 10.8781 40.6091 11.3496C40.7695 11.5451 40.9986 11.7521 41.2277 11.8211C41.6974 11.9592 42.2014 12.0052 42.6825 12.0972C43.5417 12.2697 43.9999 12.8332 43.9999 13.6958C43.9999 14.1558 43.9999 14.6159 43.9999 15.0759C43.9999 16.134 43.5417 16.6975 42.4992 16.8815C42.0639 16.962 41.6286 17.008 41.2048 17.0885C40.5518 17.2265 40.2082 18.1696 40.5977 18.7102C40.8497 19.0667 41.1246 19.4117 41.3881 19.7682C42.0525 20.7113 41.8807 21.8269 40.9528 22.4824C40.3571 22.9425 39.876 23.552 39.0283 23.6095ZM26.3357 6.77226C26.267 6.71476 26.1983 6.65726 26.1296 6.59975C25.9004 6.92178 25.6942 7.2783 25.4193 7.56582C25.1444 7.85335 25.0871 8.08336 25.3506 8.40539C25.637 8.73891 25.889 9.09544 26.141 9.46347C26.5763 10.0845 26.668 10.7056 26.393 11.4646C25.9921 12.5917 25.3277 13.2933 24.0905 13.3393C23.9072 13.3508 23.7125 13.4313 23.5292 13.4313C22.9564 13.4313 22.796 13.7073 22.8075 14.2593C22.8419 15.4784 22.7846 15.2714 23.827 15.4784C24.1249 15.5359 24.4342 15.5819 24.732 15.6279C25.3506 15.7314 25.7744 16.065 26.0379 16.6285C26.1525 16.87 26.2326 17.123 26.3587 17.3646C26.7138 18.0546 26.5992 18.6987 26.1754 19.3082C26.0265 19.5267 25.8432 19.7337 25.6942 19.9523C24.9611 21.0103 24.7435 20.7458 25.8775 21.8729C26.1296 22.1259 26.3357 22.1604 26.6221 21.9304C27.0116 21.6199 27.4126 21.3209 27.8135 21.0448C28.3061 20.6998 28.8674 20.5848 29.4516 20.7688C30.6315 21.1483 31.5708 21.7694 31.6052 23.184C31.6052 23.3565 31.651 23.529 31.6854 23.69C31.8572 24.6101 31.8572 24.6101 32.808 24.5986C32.8997 24.5986 33.0257 24.6331 33.0944 24.5871C33.2662 24.4606 33.5068 24.3226 33.5641 24.1501C33.6901 23.759 33.7359 23.322 33.8046 22.908C34.0108 21.6199 35.4428 20.5388 36.7143 20.8378C37.2069 20.9528 37.6651 21.2979 38.0889 21.6084C39.1657 22.3904 39.1543 22.4019 40.0478 21.4129C40.2655 21.1713 40.2998 20.9758 40.0936 20.7113C39.7614 20.2858 39.4407 19.8602 39.1314 19.4232C38.4555 18.4456 39.0168 16.4215 40.128 15.973C40.506 15.8119 40.9413 15.7774 41.3537 15.6854C42.5794 15.4439 42.568 15.4439 42.4992 14.2018C42.4763 13.8913 42.3847 13.6958 42.0525 13.6613C41.6172 13.6038 41.1819 13.5233 40.758 13.4543C40.2082 13.3738 39.6812 13.1667 39.4292 12.6607C38.7075 11.1886 38.3066 10.6596 39.5438 9.10694C40.38 8.04886 40.3571 8.01436 39.3605 7.14029C39.1199 6.93328 38.9137 6.88727 38.6617 7.10579C38.2837 7.42781 37.9171 7.78434 37.4818 8.01436C37.0809 8.22137 36.5539 8.43989 36.153 8.34788C34.87 8.07186 33.8619 7.58883 33.7817 6.12822C33.7703 5.9442 33.7244 5.74869 33.6901 5.56467C33.4953 4.48359 33.4953 4.48359 32.3956 4.5181C32.3613 4.5181 32.3154 4.5181 32.2811 4.5181C31.9489 4.50659 31.7999 4.66761 31.7656 4.98963C31.7083 5.50717 31.6281 6.01321 31.5479 6.51925C31.4677 7.07129 31.1355 7.46232 30.6544 7.70383C30.4139 7.81884 30.1504 7.89935 29.9213 8.02586C29.1767 8.43989 28.4894 8.29038 27.8364 7.81884C27.4469 7.53132 27.0803 7.2438 26.6909 6.95628C26.5649 6.89877 26.4388 6.84127 26.3357 6.77226Z" fill="#1B76FE"></path>
      <path d="M11.9367 19.6994C13.5176 19.6994 15.1099 19.6994 16.6907 19.6994C18.1684 19.6994 19.039 20.5735 19.0505 22.0456C19.0505 23.9203 19.062 25.8064 19.0505 27.681C19.039 29.0842 18.157 29.9927 16.7594 29.9927C13.5176 30.0042 10.2642 30.0042 7.02238 29.9927C5.6592 29.9812 4.75422 29.0727 4.74277 27.7155C4.71986 25.7949 4.71986 23.8858 4.74277 21.9651C4.75422 20.5965 5.6592 19.6994 7.02238 19.6994C8.64904 19.6879 10.2986 19.6994 11.9367 19.6994ZM11.868 28.5321C13.4717 28.5321 15.0755 28.5321 16.6792 28.5321C17.3666 28.5321 17.6186 28.2906 17.6186 27.6005C17.63 25.7604 17.63 23.9203 17.6186 22.0801C17.6186 21.3556 17.3551 21.0796 16.6678 21.0796C13.4832 21.0796 10.2986 21.0796 7.11403 21.0796C6.41525 21.0796 6.1976 21.2981 6.1976 22.0226C6.1976 23.8628 6.1976 25.7029 6.1976 27.543C6.1976 28.3136 6.41525 28.5321 7.18276 28.5321C8.74069 28.5436 10.2986 28.5321 11.868 28.5321Z" fill="#1B76FE"></path>
      <path d="M19.6114 39.3772C14.9147 39.3772 10.218 39.3772 5.5213 39.3772C4.76525 39.3772 4.39868 39.1587 4.39868 38.7101C4.38722 38.2386 4.78816 37.9971 5.55567 37.9971C14.972 37.9971 24.3768 37.9971 33.7931 37.9971C33.816 37.9971 33.8275 37.9971 33.8504 37.9971C34.5721 37.9971 34.9043 38.2156 34.9157 38.6756C34.9157 39.1357 34.5492 39.3772 33.8733 39.3887C32.8652 39.3887 31.8457 39.3887 30.8376 39.3887C27.1032 39.3772 23.3573 39.3772 19.6114 39.3772Z" fill="#1B76FE"></path>
      <path d="M19.669 33.4541C24.2741 33.4541 28.8677 33.4541 33.4727 33.4541C33.6216 33.4541 33.782 33.4541 33.9309 33.4541C34.6068 33.4656 34.9275 33.6841 34.9161 34.1326C34.9046 34.5696 34.5266 34.8342 33.908 34.8342C24.4001 34.8342 14.8921 34.8342 5.39565 34.8342C5.24673 34.8342 5.04053 34.8687 4.94889 34.7882C4.74269 34.6041 4.41049 34.3281 4.44485 34.1326C4.47922 33.8911 4.78851 33.6496 5.02908 33.4771C5.16654 33.385 5.39565 33.4426 5.59039 33.4426C10.2871 33.4541 14.9838 33.4541 19.669 33.4541Z" fill="#1B76FE"></path>
      <path d="M28.8213 28.877C30.5396 28.877 32.2579 28.877 33.9647 28.877C34.5833 28.877 34.904 29.107 34.9155 29.544C34.927 29.9925 34.5718 30.2571 33.9418 30.2571C30.5052 30.2571 27.08 30.2571 23.6434 30.2571C23.0248 30.2571 22.7041 30.027 22.6926 29.59C22.6812 29.153 23.0478 28.877 23.6663 28.877C25.3847 28.877 27.103 28.877 28.8213 28.877Z" fill="#1B76FE"></path>
      <path d="M12.1538 13.834C11.9018 13.834 11.6612 13.8455 11.4092 13.834C11.0083 13.8109 10.7677 13.5924 10.7563 13.1899C10.7448 12.7874 10.9739 12.5114 11.3519 12.4884C11.9018 12.4423 12.4517 12.4538 13.0015 12.4884C13.391 12.5114 13.6201 12.7989 13.5972 13.1899C13.5743 13.5809 13.3452 13.8225 12.9442 13.8455C12.6808 13.8455 12.4173 13.834 12.1538 13.834Z" fill="#1B76FE"></path>
      <path d="M5.41807 13.8338C5.16606 13.8338 4.92549 13.8453 4.67348 13.8338C4.27254 13.8107 3.96324 13.5807 4.02052 13.2012C4.06634 12.9367 4.36418 12.5457 4.59329 12.4997C5.14315 12.3961 5.73882 12.4076 6.28868 12.4997C6.50633 12.5342 6.81563 12.9367 6.81563 13.1552C6.80417 13.3852 6.49488 13.6727 6.24286 13.7877C6.02521 13.9143 5.70446 13.8338 5.41807 13.8338Z" fill="#1B76FE"></path>
      <path d="M8.76286 13.834C8.51085 13.834 8.23592 13.9145 8.02972 13.811C7.7777 13.6845 7.41113 13.4199 7.41113 13.2244C7.42259 12.9714 7.70897 12.5459 7.93808 12.5114C8.51085 12.4079 9.11798 12.4194 9.69075 12.5114C9.89694 12.5459 10.1719 12.9484 10.1833 13.1899C10.1948 13.3969 9.89694 13.696 9.65638 13.7995C9.40436 13.903 9.0607 13.8225 8.76286 13.834Z" fill="#1B76FE"></path>
      <path d="M23.701 25.6799C23.5636 25.6799 23.4032 25.7259 23.3116 25.6684C23.0939 25.5304 22.7961 25.3579 22.7388 25.1394C22.6815 24.9553 22.8763 24.5183 23.0137 24.4838C23.4948 24.3918 24.0103 24.3918 24.4915 24.4608C24.6289 24.4838 24.8122 24.9093 24.7778 25.1164C24.7435 25.3234 24.48 25.5304 24.2738 25.6454C24.1249 25.7259 23.9072 25.6799 23.7125 25.6914C23.701 25.6914 23.701 25.6914 23.701 25.6799Z" fill="#1B76FE"></path>
      <path d="M37.3329 14.4551C37.3329 16.9853 35.2824 19.0669 32.7622 19.0784C30.2191 19.1014 28.1113 16.9968 28.1113 14.4551C28.1113 11.9249 30.242 9.78573 32.7507 9.82024C35.2709 9.84324 37.3214 11.9249 37.3329 14.4551ZM32.6591 17.6293C34.4003 17.6523 35.8666 16.2377 35.8781 14.5126C35.8895 12.776 34.469 11.3153 32.7507 11.2923C31.0324 11.2808 29.612 12.6609 29.5662 14.3861C29.5203 16.1342 30.9179 17.6063 32.6591 17.6293Z" fill="#1B76FE"></path>
    </g>
    <defs>
      <clipPath id="clip0_9232_1389">
        <rect width="44" height="40" fill="white" transform="translate(0 3)"></rect>
      </clipPath>
    </defs>
  </symbol>
  <symbol fill="none" xmlns="http://www.w3.org/2000/svg" viewBox="0 0 32 32" id="whatsapp">
    <path fill-rule="evenodd" clip-rule="evenodd" d="M16 31C23.732 31 30 24.732 30 17C30 9.26801 23.732 3 16 3C8.26801 3 2 9.26801 2 17C2 19.5109 2.661 21.8674 3.81847 23.905L2 31L9.31486 29.3038C11.3014 30.3854 13.5789 31 16 31ZM16 28.8462C22.5425 28.8462 27.8462 23.5425 27.8462 17C27.8462 10.4576 22.5425 5.15385 16 5.15385C9.45755 5.15385 4.15385 10.4576 4.15385 17C4.15385 19.5261 4.9445 21.8675 6.29184 23.7902L5.23077 27.7692L9.27993 26.7569C11.1894 28.0746 13.5046 28.8462 16 28.8462Z" fill="#BFC8D0"></path>
    <path d="M28 16C28 22.6274 22.6274 28 16 28C13.4722 28 11.1269 27.2184 9.19266 25.8837L5.09091 26.9091L6.16576 22.8784C4.80092 20.9307 4 18.5589 4 16C4 9.37258 9.37258 4 16 4C22.6274 4 28 9.37258 28 16Z" fill="url(#paint0_linear_87_7264)"></path>
    <path fill-rule="evenodd" clip-rule="evenodd" d="M16 30C23.732 30 30 23.732 30 16C30 8.26801 23.732 2 16 2C8.26801 2 2 8.26801 2 16C2 18.5109 2.661 20.8674 3.81847 22.905L2 30L9.31486 28.3038C11.3014 29.3854 13.5789 30 16 30ZM16 27.8462C22.5425 27.8462 27.8462 22.5425 27.8462 16C27.8462 9.45755 22.5425 4.15385 16 4.15385C9.45755 4.15385 4.15385 9.45755 4.15385 16C4.15385 18.5261 4.9445 20.8675 6.29184 22.7902L5.23077 26.7692L9.27993 25.7569C11.1894 27.0746 13.5046 27.8462 16 27.8462Z" fill="white"></path>
    <path d="M12.5 9.49989C12.1672 8.83131 11.6565 8.8905 11.1407 8.8905C10.2188 8.8905 8.78125 9.99478 8.78125 12.05C8.78125 13.7343 9.52345 15.578 12.0244 18.3361C14.438 20.9979 17.6094 22.3748 20.2422 22.3279C22.875 22.2811 23.4167 20.0154 23.4167 19.2503C23.4167 18.9112 23.2062 18.742 23.0613 18.696C22.1641 18.2654 20.5093 17.4631 20.1328 17.3124C19.7563 17.1617 19.5597 17.3656 19.4375 17.4765C19.0961 17.8018 18.4193 18.7608 18.1875 18.9765C17.9558 19.1922 17.6103 19.083 17.4665 19.0015C16.9374 18.7892 15.5029 18.1511 14.3595 17.0426C12.9453 15.6718 12.8623 15.2001 12.5959 14.7803C12.3828 14.4444 12.5392 14.2384 12.6172 14.1483C12.9219 13.7968 13.3426 13.254 13.5313 12.9843C13.7199 12.7145 13.5702 12.305 13.4803 12.05C13.0938 10.953 12.7663 10.0347 12.5 9.49989Z" fill="white"></path>
    <defs>
      <linearGradient id="paint0_linear_87_7264" x1="26.5" y1="7" x2="4" y2="28" gradientUnits="userSpaceOnUse">
        <stop stop-color="#5BD066"></stop>
        <stop offset="1" stop-color="#27B43E"></stop>
      </linearGradient>
    </defs>
  </symbol>
  <symbol fill="none" xmlns="http://www.w3.org/2000/svg" viewBox="0 0 62 62" id="mobile">
    <g clip-path="url(#clip0_9235_2415)">
      <path d="M14.9964 37C14.4466 37 13.9967 37 13.5301 37C12.847 37 12.4305 36.7 12.2972 36.0167C12.2638 35.85 12.1972 35.6833 12.1972 35.5333C12.2472 33.9333 11.1641 33.3667 9.89782 32.9833C9.7312 32.9333 9.48127 33 9.29799 33.1C8.7648 33.4 8.26494 33.75 7.74842 34.0833C7.16525 34.4667 6.63206 34.4667 6.11554 33.9333C5.44906 33.2333 4.74925 32.55 4.04945 31.8667C3.54959 31.3833 3.53292 30.8667 3.88283 30.3C3.9828 30.1333 4.06611 29.95 4.19941 29.8167C5.04917 28.9 5.1658 27.9667 4.49932 26.85C4.23273 26.4 4.01612 26.0833 3.4996 26.0167C3.3663 26 3.23301 25.95 3.09971 25.9333C0.916984 25.5167 1.00029 25.5333 1.00029 23.2833C1.00029 20.1333 0.80035 20.5833 3.54959 20C4.08277 19.8833 4.28272 19.5833 4.51598 19.1333C5.08249 18.1 5.03251 17.2833 4.29938 16.3C3.28299 14.95 3.3663 14.8667 4.56597 13.65C5.09916 13.1167 5.63234 12.6 6.14886 12.05C6.59874 11.5667 7.0986 11.5333 7.64845 11.85C7.86505 11.9833 8.09832 12.0833 8.2816 12.25C9.14803 13.0833 10.0478 13.1167 11.0975 12.5333C11.614 12.25 11.9306 11.9833 12.0139 11.4C12.0972 10.8833 12.2138 10.3667 12.3471 9.85C12.4971 9.25 12.8803 8.91667 13.4968 9.01667C14.1466 9.13333 14.4299 9.6 14.2966 10.25C14.1133 11.2333 13.9634 12.2333 13.6468 13.1667C13.5135 13.55 13.0136 13.8833 12.6137 14.1C11.9139 14.4667 11.1142 14.6833 10.4143 15.05C9.84784 15.3333 9.3813 15.35 8.86478 15C8.31493 14.6167 7.74842 14.2833 7.2319 13.9667C7.13192 14 7.0986 14 7.08194 14.0167C5.86561 15.0333 5.83228 15.05 6.7487 16.3667C7.31521 17.1833 7.49849 17.8833 6.89866 18.7833C6.53209 19.3167 6.38213 20 6.18219 20.6333C5.98224 21.25 5.649 21.6333 4.98252 21.7333C4.34936 21.8333 3.74953 22.0167 3.09971 22.1667C3.09971 22.7167 3.09971 23.25 3.09971 23.85C3.73287 24 4.36603 24.1833 4.99918 24.3C5.63234 24.4 5.96558 24.75 6.16553 25.3333C6.44878 26.1333 6.86533 26.9 7.11526 27.7167C7.24856 28.1333 7.2319 28.7 7.06528 29.1C6.79868 29.7333 6.36547 30.2833 5.94892 30.9333C6.36547 31.3 6.76536 31.65 7.2319 32.0667C7.7151 31.7667 8.29827 31.45 8.83145 31.0667C9.36464 30.6833 9.8645 30.6667 10.4477 30.9833C11.1475 31.35 11.9139 31.65 12.6637 31.9C13.2636 32.1167 13.6801 32.4167 13.7634 33.1C13.8134 33.5167 13.98 33.9167 14.0133 34.3167C14.08 34.9167 14.3466 35.1667 14.9964 34.9667C14.9964 33.0333 14.9964 31.0667 14.9964 29.2C14.0467 28.9 13.0636 28.7167 12.2305 28.2833C8.38158 26.3167 7.94836 20.8 11.4307 18.2667C11.764 18.0333 12.3305 17.8833 12.697 18C13.4468 18.2333 13.3969 19.1 12.797 19.75C12.1972 20.4167 11.5307 21.1333 11.2641 21.95C10.4643 24.4833 12.2472 26.8333 15.0464 27C15.0464 26.6833 15.0464 26.3667 15.0464 26.05C15.0464 19.55 15.0464 13.05 15.0464 6.55C14.9964 3.03333 17.0458 1 20.5449 1C27.5429 1 34.541 1 41.539 1C44.9381 1 47.0042 3.05 47.0042 6.43333C47.0042 12.3 47.0042 18.15 47.0042 24.0167C47.0042 24.3167 47.0042 24.6167 47.0042 25C47.4874 25 47.8873 25 48.3038 25C49.3035 25.0167 49.5368 25.2167 49.7534 26.2167C49.7701 26.3 49.8034 26.3833 49.8034 26.4667C49.7534 28.05 50.8031 28.65 52.0861 29.0167C52.2694 29.0667 52.5193 29.0167 52.6859 28.9167C53.2358 28.6 53.769 28.2333 54.3022 27.9C54.8687 27.5333 55.3852 27.5833 55.8684 28.0833C56.5515 28.7833 57.2347 29.4667 57.9345 30.15C58.4343 30.6333 58.4677 31.15 58.1178 31.7167C58.0011 31.9 57.9012 32.1167 57.7512 32.2667C56.9181 33.1667 56.8514 34.0833 57.4846 35.1667C57.7512 35.6167 57.9511 35.9333 58.4843 36C58.6676 36.0167 58.8675 36.1 59.0508 36.1333C61.3669 36.4833 60.9836 36.95 61.0003 38.65C61.0003 39.2667 61.0003 39.8667 61.0003 40.4833C61.0003 41.1667 60.7004 41.5833 60.0172 41.7167C59.8506 41.75 59.684 41.8167 59.534 41.8167C57.9511 41.7667 57.368 42.8667 57.0014 44.1333C56.9514 44.3 57.0181 44.55 57.118 44.7167C57.4346 45.2667 57.8178 45.7833 58.1511 46.3333C58.4843 46.8667 58.4677 47.3833 58.0011 47.85C57.2847 48.55 56.5848 49.2667 55.885 49.9833C55.4018 50.4833 54.8853 50.5 54.3188 50.15C54.1355 50.0333 53.9189 49.9333 53.769 49.7833C52.9025 48.9667 52.0195 48.9 50.9531 49.5C50.4532 49.7833 50.12 50.05 50.0367 50.6167C49.97 51.1333 49.8367 51.65 49.7034 52.1667C49.5535 52.7667 49.1702 53.1167 48.5537 53.0167C47.9039 52.9167 47.6207 52.4333 47.7373 51.7833C47.9206 50.8 48.0872 49.8167 48.3871 48.8667C48.5038 48.5167 48.9037 48.1833 49.2702 48C50.0867 47.5833 50.9198 47.2167 51.7862 46.95C52.1861 46.8333 52.7026 46.8667 53.0858 47.0333C53.719 47.3 54.2688 47.75 54.8687 48.1167C55.2519 47.7 55.6018 47.3167 56.035 46.8333C55.7684 46.4 55.4685 45.8333 55.1019 45.3333C54.6687 44.75 54.6521 44.2167 55.002 43.5667C55.3685 42.9167 55.6351 42.2167 55.8517 41.5C56.0683 40.8167 56.4182 40.3833 57.168 40.3167C57.5013 40.2833 57.8178 40.1333 58.1511 40.1167C58.9009 40.0667 59.0675 39.6833 59.0508 38.9833C59.0508 38.35 58.8509 38.0667 58.2344 38.0333C56.7681 37.95 56.1183 37.1667 55.5185 35.7833C54.802 34.1667 54.6354 32.9167 55.8517 31.5833C55.9684 31.45 55.8684 31.05 55.7517 30.8333C55.6351 30.6 55.3852 30.4333 55.1852 30.2333C55.1019 30.1667 55.0186 30.1 54.8853 30C54.3188 30.35 53.7523 30.6833 53.2025 31.0667C52.6859 31.4167 52.2194 31.4167 51.6529 31.1333C50.9697 30.7833 50.2533 30.4667 49.5201 30.2333C48.8037 30.0167 48.3705 29.6333 48.3038 28.85C48.2705 28.4667 48.1039 28.1 48.0705 27.7167C48.0039 27.1333 47.704 26.9667 47.1042 27.1167C47.1042 29.05 47.1042 31 47.1042 32.75C48.3371 33.2667 49.6035 33.5833 50.6032 34.2833C53.9356 36.6333 53.819 41.8 50.4865 43.9667C49.92 44.3333 49.4202 44.3167 49.0369 43.7833C48.6537 43.2833 48.8037 42.7833 49.2702 42.3833C49.4035 42.2667 49.5368 42.1833 49.6534 42.0667C50.9198 40.9333 51.353 39.2833 50.7865 37.6667C50.2699 36.15 48.8703 35.1667 47.0542 35.0833C47.0542 35.4 47.0542 35.7333 47.0542 36.05C47.0542 42.5167 47.0542 49 47.0542 55.4667C47.0542 59.0333 45.0381 61.0667 41.5057 61.0667C34.541 61.0667 27.5596 61.0667 20.5948 61.0667C17.0958 61.0667 15.0631 59.0333 15.0631 55.5333C15.0631 49.7 15.0631 43.8667 15.0631 38.0333C14.9964 37.6833 14.9964 37.3833 14.9964 37ZM44.9881 31C44.9881 22.8333 44.9881 14.6667 44.9881 6.5C44.9881 4.15 43.8551 3 41.539 3C34.5077 3 27.4929 3 20.4616 3C18.1289 3 17.0125 4.15 17.0125 6.5C17.0125 22.8333 17.0125 39.1667 17.0125 55.4833C17.0125 57.8667 18.1455 58.9833 20.5449 58.9833C27.4929 58.9833 34.4243 58.9833 41.3724 58.9833C43.8884 58.9833 44.9881 57.9 44.9881 55.4C44.9881 47.2833 44.9881 39.1333 44.9881 31Z" fill="#1B76FE"></path>
      <path d="M50.9863 10.0665C51.0363 9.46654 51.3362 9.0332 51.9861 9.0332C52.6025 9.0332 52.9691 9.41654 52.9691 10.0165C52.9691 10.6332 52.6025 11.0832 51.9527 11.0999C51.3696 11.0999 51.003 10.7332 50.9863 10.0665Z" fill="#1B76FE"></path>
      <path d="M53.0025 14.0333C52.8859 14.6333 52.586 15.0999 51.9361 15.0833C51.3363 15.0666 50.9697 14.6999 51.0031 14.0666C51.0364 13.4166 51.3696 13.0166 52.0195 13.0166C52.636 13.0333 52.9359 13.4333 53.0025 14.0333Z" fill="#1B76FE"></path>
      <path d="M53.0025 17.9999C52.8859 18.6333 52.586 19.0999 51.9361 19.0833C51.3363 19.0666 50.9697 18.6999 51.0031 18.0666C51.0364 17.4166 51.3696 17.0166 52.0195 17.0166C52.636 17.0333 52.9192 17.4499 53.0025 17.9999Z" fill="#1B76FE"></path>
      <path d="M10.1305 42.8168C10.647 42.8835 10.9802 43.2335 10.9969 43.8502C10.9969 44.4502 10.5137 44.9002 9.91387 44.8668C9.31404 44.8335 9.01412 44.4835 9.01412 43.8835C8.99746 43.2668 9.44733 42.8002 10.1305 42.8168Z" fill="#1B76FE"></path>
      <path d="M9.88043 48.8669C9.31392 48.8335 8.98068 48.5002 9.014 47.8669C9.03067 47.2669 9.33058 46.8502 9.96374 46.8335C10.5969 46.8169 10.9301 47.2002 10.9801 47.8002C11.0301 48.3835 10.5469 48.8669 9.88043 48.8669Z" fill="#1B76FE"></path>
      <path d="M10.9969 51.7668C10.9803 52.4668 10.5137 52.9168 9.9139 52.8668C9.26408 52.8335 8.96416 52.4335 9.01414 51.8168C9.06413 51.2168 9.38071 50.8168 10.0139 50.8335C10.6637 50.8335 10.9303 51.2502 10.9969 51.7668Z" fill="#1B76FE"></path>
      <path d="M23.344 31C24.4937 32.1167 25.5267 33.1333 26.5431 34.1333C26.993 34.5667 27.1763 35.05 26.7764 35.6167C26.4098 36.1167 25.76 36.1667 25.2435 35.6667C23.9272 34.3833 22.6442 33.0833 21.3612 31.7833C20.8614 31.2833 20.8614 30.7333 21.3612 30.2333C22.6442 28.9333 23.9438 27.6333 25.2435 26.35C25.71 25.9 26.2432 25.85 26.7097 26.3333C27.143 26.8 27.0763 27.3167 26.6431 27.75C25.61 28.8167 24.527 29.85 23.344 31Z" fill="#1B76FE"></path>
      <path d="M38.6058 30.933C37.6561 30.0164 36.7397 29.1497 35.8399 28.2664C35.64 28.0664 35.4401 27.883 35.2568 27.6664C34.9069 27.2164 34.8902 26.733 35.3068 26.3164C35.7233 25.8997 36.2398 25.883 36.6564 26.283C38.0227 27.6164 39.389 28.9664 40.7219 30.333C41.1218 30.7497 41.1218 31.2664 40.7219 31.683C39.4056 33.033 38.0727 34.3664 36.723 35.683C36.2898 36.1164 35.7566 36.133 35.3068 35.683C34.8402 35.1997 34.9235 34.6664 35.3734 34.2164C36.2232 33.3497 37.0896 32.483 37.956 31.6164C38.1393 31.433 38.3226 31.233 38.6058 30.933Z" fill="#1B76FE"></path>
      <path d="M28.9424 35.1665C29.059 34.6998 29.109 34.4498 29.1757 34.2165C29.7422 31.8998 30.3253 29.5832 30.8918 27.2665C30.9252 27.0998 30.9752 26.9498 31.0251 26.7832C31.2251 26.2165 31.625 25.8832 32.2248 26.0498C32.858 26.2165 33.0912 26.6998 32.9413 27.3498C32.4414 29.3665 31.9416 31.3832 31.425 33.3998C31.2584 34.0498 31.1918 34.7332 30.8918 35.3165C30.7252 35.6332 30.1587 35.9665 29.8088 35.9332C29.4756 35.8832 29.1757 35.3998 28.9424 35.1665Z" fill="#1B76FE"></path>
      <path d="M30.9916 4.99959C31.908 4.99959 32.8244 4.98293 33.7409 4.99959C34.5406 5.01626 35.0405 5.39959 34.9738 6.01626C34.9072 6.73293 34.4573 6.99959 33.7742 6.99959C31.9247 6.99959 30.0585 6.99959 28.2091 6.99959C27.5426 6.99959 27.076 6.73293 27.0094 6.01626C26.9594 5.39959 27.4426 4.99959 28.2424 4.99959C29.1755 4.99959 30.0919 4.99959 30.9916 4.99959Z" fill="#1B76FE"></path>
    </g>
    <defs>
      <clipPath id="clip0_9235_2415">
        <rect width="60" height="60" fill="white" transform="translate(1 1)"></rect>
      </clipPath>
    </defs>
  </symbol>
  <symbol fill="none" xmlns="http://www.w3.org/2000/svg" viewBox="0 0 72 72" id="aws">
    <rect opacity="0.1" width="72" height="72" fill="#001427"></rect>
    <path fill-rule="evenodd" clip-rule="evenodd" d="M56.8804 36.0786C58.0777 36.366 59.3229 36.5097 60.5682 36.5097C61.7894 36.5097 62.9149 36.342 63.9925 36.0068C65.0222 35.6955 65.9082 35.2644 66.6506 34.6658C67.3929 34.0911 67.9676 33.3727 68.3987 32.5585C68.8057 31.7443 69.0213 30.8104 69.0213 29.7807C69.0213 28.5355 68.6621 27.41 67.9197 26.4282C67.1774 25.4464 65.9322 24.6801 64.208 24.1293L60.8076 23.0518C59.5385 22.6447 58.6524 22.1897 58.1735 21.7347C57.6946 21.2797 57.4551 20.705 57.4551 20.0345C57.4551 19.0527 57.8383 18.3583 58.5806 17.9033C59.3229 17.4483 60.4005 17.2328 61.7655 17.2328C63.4657 17.2328 64.9982 17.5441 66.3632 18.1667C66.7703 18.3583 67.0816 18.454 67.2732 18.454C67.6324 18.454 67.8239 18.1906 67.8239 17.6878V16.5623C67.8239 16.227 67.7521 15.9636 67.6084 15.772C67.4647 15.5565 67.2253 15.3649 66.89 15.1734C66.6506 15.0297 66.3153 14.886 65.8843 14.7423C65.4532 14.5987 64.9982 14.4789 64.5193 14.3592L64.5193 14.3592C64.0164 14.2634 63.5136 14.1676 62.9628 14.0958C62.436 14.0239 61.8852 14 61.3584 14C60.3047 14 59.299 14.1197 58.3411 14.4071C57.3833 14.6944 56.5691 15.1015 55.8507 15.6523C55.1323 16.1791 54.5576 16.8496 54.1266 17.6159C53.6955 18.3822 53.48 19.2682 53.48 20.274C53.48 21.5192 53.8871 22.6926 54.6773 23.7462C55.4676 24.8238 56.7607 25.638 58.5088 26.1887L61.981 27.2663C63.1544 27.6495 63.9686 28.0566 64.3996 28.5115C64.8306 28.9665 65.0461 29.5173 65.0461 30.1878C65.0461 31.1696 64.6151 31.9359 63.8009 32.4627C62.9867 32.9895 61.8134 33.2529 60.3047 33.2529C59.3469 33.2529 58.413 33.1572 57.4551 32.9656C56.5212 32.774 55.6352 32.4867 54.821 32.1275C54.7362 32.0935 54.6544 32.0596 54.5777 32.0278C54.4379 31.9698 54.3151 31.9189 54.2224 31.888C54.0787 31.8401 53.935 31.8162 53.7913 31.8162C53.4321 31.8162 53.2405 32.0556 53.2405 32.5585V33.7798C53.2405 33.9953 53.2884 34.2347 53.3842 34.4503C53.48 34.6658 53.7434 34.9052 54.1266 35.1208C54.7492 35.48 55.6831 35.7913 56.8804 36.0786ZM20.5536 31.7683C20.3859 31.2415 20.2901 30.5231 20.2901 29.6371H20.2423V21.8784C20.2423 19.2443 19.5718 17.2807 18.2547 15.9876C16.9137 14.6945 14.8304 14.0479 11.9807 14.0479C10.6637 14.0479 9.41846 14.1916 8.24509 14.5029C7.07171 14.7903 6.06596 15.1495 5.22783 15.5805C4.89258 15.7481 4.67707 15.9157 4.55733 16.0834C4.4376 16.251 4.38971 16.5384 4.38971 16.9215V18.0949C4.38971 18.5977 4.55733 18.8372 4.89258 18.8372C4.98837 18.8372 5.1081 18.8133 5.27573 18.7654C5.44335 18.7175 5.73071 18.6217 6.11385 18.4541C6.95198 18.1188 7.81405 17.8554 8.70007 17.6399C9.58609 17.4244 10.4482 17.3286 11.2863 17.3286C13.1302 17.3286 14.4233 17.6878 15.1896 18.4301C15.9319 19.1725 16.315 20.4416 16.315 22.2616V24.0096C15.3572 23.7941 14.4472 23.6026 13.5612 23.4828C12.6752 23.3631 11.8371 23.2913 11.0229 23.2913C8.55639 23.2913 6.61673 23.9139 5.15599 25.1591C3.69526 26.4043 2.97687 28.0566 2.97687 30.092C2.97687 32.0078 3.57553 33.5403 4.7489 34.6898C5.92228 35.8392 7.52669 36.4139 9.53819 36.4139C12.3639 36.4139 14.7106 35.3124 16.5784 33.1093C16.8419 33.6601 17.0813 34.115 17.3208 34.5221C17.5603 34.9053 17.8476 35.2884 18.1829 35.6476C18.4223 35.8631 18.6618 35.9829 18.9013 35.9829C19.0928 35.9829 19.3083 35.911 19.5239 35.7673L21.0325 34.7616C21.3438 34.5221 21.4875 34.2827 21.4875 34.0432C21.4875 33.8756 21.4396 33.684 21.3198 33.4924C20.9846 32.8698 20.7451 32.2951 20.5536 31.7683ZM13.0345 32.8458C12.1724 33.1332 11.3582 33.2768 10.568 33.2768C9.46643 33.2768 8.62831 32.9895 8.05359 32.3908C7.45493 31.8161 7.16758 30.978 7.16758 29.8525C7.16758 28.6552 7.55072 27.7452 8.34095 27.0987C9.13118 26.4521 10.3046 26.1408 11.909 26.1408C12.6513 26.1408 13.3937 26.1887 14.1599 26.2845C14.9262 26.3803 15.6686 26.524 16.363 26.6916V27.6973C16.363 28.5115 16.2672 29.206 16.1235 29.7807C15.9799 30.3554 15.6925 30.8583 15.3094 31.3132C14.6628 32.0316 13.8965 32.5585 13.0345 32.8458ZM29.7968 35.8631C29.3658 35.8631 29.0784 35.7912 28.8869 35.6236C28.6953 35.4799 28.5277 35.1447 28.384 34.6897L22.7566 16.1791C22.6129 15.7002 22.5411 15.3889 22.5411 15.2212C22.5411 14.8381 22.7326 14.6226 23.1158 14.6226H25.4625C25.9175 14.6226 26.2288 14.6944 26.3964 14.862C26.588 15.0057 26.7317 15.341 26.8754 15.7959L30.8984 31.6485L34.634 15.7959C34.7537 15.317 34.8974 15.0057 35.089 14.862C35.2806 14.7183 35.6158 14.6226 36.0469 14.6226H37.9626C38.4175 14.6226 38.7289 14.6944 38.9204 14.862C39.112 15.0057 39.2796 15.341 39.3754 15.7959L43.1589 31.8401L47.3017 15.7959C47.4454 15.317 47.613 15.0057 47.7806 14.862C47.9722 14.7183 48.2835 14.6226 48.7145 14.6226H50.9415C51.3247 14.6226 51.5402 14.8141 51.5402 15.2212C51.5402 15.3235 51.5227 15.4257 51.5027 15.5429L51.4923 15.6044C51.4684 15.748 51.4205 15.9396 51.3247 16.203L45.5536 34.7136C45.4099 35.1926 45.2423 35.5039 45.0507 35.6475C44.8591 35.7912 44.5478 35.887 44.1407 35.887H42.0814C41.6264 35.887 41.3151 35.8152 41.1235 35.6475C40.9319 35.4799 40.7643 35.1686 40.6685 34.6897L36.9568 19.2442L33.2691 34.6657C33.1493 35.1447 33.0057 35.456 32.8141 35.6236C32.6225 35.7912 32.2873 35.8631 31.8562 35.8631H29.7968Z" fill="white"></path>
    <path fill-rule="evenodd" clip-rule="evenodd" d="M59.1553 44.1007C61.7176 43.7894 67.3689 43.1189 68.3747 44.412C69.3804 45.6811 67.2492 51.0212 66.2913 53.3919C66.004 54.1103 66.6266 54.3976 67.2731 53.8469C71.4877 50.3028 72.5893 42.9034 71.7272 41.8258C70.8651 40.7721 63.4657 39.8622 58.9637 43.0231C58.2693 43.526 58.389 44.1965 59.1553 44.1007ZM35.9273 57.0557C45.7693 57.0557 57.2157 53.9666 65.0941 48.1476C66.3872 47.1897 65.2617 45.729 63.9447 46.3277C55.1084 50.0633 45.5059 51.8832 36.7655 51.8832C23.8104 51.8832 11.2864 48.3152 1.13315 42.4244C0.247131 41.8976 -0.423369 42.8075 0.318971 43.478C9.70598 51.9551 22.1342 57.0557 35.9273 57.0557Z" fill="#FF9900"></path>
  </symbol>
  <symbol id="chevron" xmlns="http://www.w3.org/2000/svg" viewBox="0 0 51 51">
    <defs></defs>
    <circle cx="25.5" cy="25.5" r="25.5"></circle>
    <rect x="24.4" y="27.9" width="1.6" height="15.24" rx="0.8" transform="matrix(0.78, -0.63, 0.63, 0.78, -21.26, 15.39)"></rect>
    <rect x="33.3" y="27.9" width="1.6" height="15.24" rx="0.8" transform="translate(24 -21.9) rotate(37.3)"></rect>
  </symbol>
  <symbol version="1.1" xmlns="http://www.w3.org/2000/svg" xmlns:xlink="http://www.w3.org/1999/xlink" viewBox="0 0 48 48" id="facebook">
    <title>Facebook-color</title>
    <desc>Created with Sketch.</desc>
    <defs></defs>
    <g id="Icons" stroke="none" stroke-width="1" fill="none" fill-rule="evenodd">
      <g id="Color-" transform="translate(-200.000000, -160.000000)" fill="#4460A0">
        <path d="M225.638355,208 L202.649232,208 C201.185673,208 200,206.813592 200,205.350603 L200,162.649211 C200,161.18585 201.185859,160 202.649232,160 L245.350955,160 C246.813955,160 248,161.18585 248,162.649211 L248,205.350603 C248,206.813778 246.813769,208 245.350955,208 L233.119305,208 L233.119305,189.411755 L239.358521,189.411755 L240.292755,182.167586 L233.119305,182.167586 L233.119305,177.542641 C233.119305,175.445287 233.701712,174.01601 236.70929,174.01601 L240.545311,174.014333 L240.545311,167.535091 C239.881886,167.446808 237.604784,167.24957 234.955552,167.24957 C229.424834,167.24957 225.638355,170.625526 225.638355,176.825209 L225.638355,182.167586 L219.383122,182.167586 L219.383122,189.411755 L225.638355,189.411755 L225.638355,208 L225.638355,208 Z" id="Facebook"></path>
      </g>
    </g>
  </symbol>
  <symbol id="frontend" fill="none" xmlns="http://www.w3.org/2000/svg" viewBox="0 -3 24 24">
    <path fill-rule="evenodd" clip-rule="evenodd" d="M13.0299 0.75746C13.1638 0.22166 13.7067 -0.1041 14.2425 0.02985C14.7783 0.1638 15.1041 0.70673 14.9701 1.24253L10.9701 17.2425C10.8362 17.7783 10.2933 18.1041 9.75746 17.9701C9.22167 17.8362 8.89591 17.2933 9.02986 16.7575L13.0299 0.75746zM6.70711 4.7071L2.41421 9L6.70711 13.2929C7.09763 13.6834 7.09763 14.3166 6.70711 14.7071C6.31658 15.0976 5.68342 15.0976 5.29289 14.7071L0.292893 9.7071C-0.0976311 9.3166 -0.0976311 8.6834 0.292893 8.2929L5.29289 3.29289C5.68342 2.90236 6.31658 2.90236 6.70711 3.29289C7.09763 3.68341 7.09763 4.31658 6.70711 4.7071zM17.2929 13.2929L21.5858 9L17.2929 4.7071C16.9024 4.31658 16.9024 3.68341 17.2929 3.29289C17.6834 2.90236 18.3166 2.90236 18.7071 3.29289L23.7071 8.2929C24.0976 8.6834 24.0976 9.3166 23.7071 9.7071L18.7071 14.7071C18.3166 15.0976 17.6834 15.0976 17.2929 14.7071C16.9024 14.3166 16.9024 13.6834 17.2929 13.2929z" fill="#758CA3"></path>
  </symbol>
  <symbol version="1.1" id="fullstack" xmlns="http://www.w3.org/2000/svg" xmlns:xlink="http://www.w3.org/1999/xlink" xml:space="preserve" viewBox="0 0 256.537 256.537">
    <g>
      <path d="M107.729,9.908H12.5c-6.892,0-12.5,5.607-12.5,12.5v85.517c0,6.893,5.608,12.5,12.5,12.5h95.229
		c6.893,0,12.5-5.607,12.5-12.5V22.409C120.229,15.516,114.622,9.908,107.729,9.908z M105.229,105.425H15V24.909h90.229V105.425z"></path>
      <path d="M244.037,9.908h-95.229c-6.893,0-12.5,5.607-12.5,12.5v85.517c0,6.893,5.607,12.5,12.5,12.5h95.229
		c6.893,0,12.5-5.607,12.5-12.5V22.409C256.537,15.516,250.929,9.908,244.037,9.908z M241.537,105.425h-90.229V24.909h90.229
		V105.425z"></path>
      <path d="M107.729,136.111H12.5c-6.892,0-12.5,5.607-12.5,12.5v85.518c0,6.893,5.608,12.5,12.5,12.5h95.229
		c6.893,0,12.5-5.607,12.5-12.5v-85.518C120.229,141.718,114.622,136.111,107.729,136.111z M105.229,231.628H15v-80.518h90.229
		V231.628z"></path>
      <path d="M244.037,136.111h-95.229c-6.893,0-12.5,5.607-12.5,12.5v85.518c0,6.893,5.607,12.5,12.5,12.5
		h95.229c6.893,0,12.5-5.607,12.5-12.5v-85.518C256.537,141.718,250.929,136.111,244.037,136.111z M241.537,231.628h-90.229v-80.518
		h90.229V231.628z"></path>
    </g>
  </symbol>
  <symbol fill="none" xmlns="http://www.w3.org/2000/svg" viewBox="0 0 62 62" id="fullstacks">
    <g clip-path="url(#clip0_9235_2416)">
      <path d="M21.8474 52.4065C21.8474 50.8006 21.8474 49.3039 21.8474 47.6668C21.5317 47.6668 21.2318 47.6668 20.9319 47.6668C16.8593 47.6668 12.771 47.6668 8.69842 47.6668C5.14677 47.6668 3.01579 45.5619 3 42.0383C3 32.7614 3 23.4845 3 14.2076C3 11.791 3.97868 9.96676 6.29909 9.04687C6.97785 8.76623 7.78289 8.70386 8.52479 8.68827C11.082 8.64149 13.6234 8.65709 16.1806 8.68827C16.6699 8.68827 16.9067 8.56354 17.1277 8.0958C20.0006 2.03074 27.6721 0.113 33.1338 4.1044C33.6073 4.44741 33.9862 4.50977 34.5702 4.41623C38.5638 3.71461 41.8156 4.97752 44.3096 8.11139C44.6411 8.53235 44.941 8.70386 45.4777 8.68827C48.4769 8.67268 51.476 8.67268 54.4752 8.67268C57.8532 8.68827 60 10.7775 60 14.1297C60.0158 23.4845 60.0158 32.8393 60 42.1942C60 45.5619 57.8059 47.6668 54.3963 47.6668C50.3237 47.6668 46.2354 47.6668 42.1628 47.6668C41.8471 47.6668 41.5472 47.6668 41.1842 47.6668C41.1842 49.2571 41.1842 50.785 41.1842 52.4065C42.5259 52.4065 43.8676 52.3754 45.1936 52.4221C46.2038 52.4533 47.2614 52.4689 48.2401 52.7184C50.1185 53.1861 51.1603 54.6517 51.1761 56.5539C51.1761 57.3022 51.1919 58.0662 51.1761 58.8146C51.1603 59.6877 50.8446 59.984 49.9765 59.9996C49.1556 60.0151 48.3506 59.9996 47.5298 59.9996C36.1645 59.9996 24.7992 59.9996 13.434 59.9996C12.0449 59.9996 11.8397 59.8125 11.8397 58.4248C11.8397 57.8791 11.8397 57.3334 11.8397 56.7877C11.8397 54.3867 13.1814 52.7807 15.6123 52.5157C17.2224 52.3442 18.864 52.4221 20.4899 52.4065C20.9161 52.391 21.3423 52.4065 21.8474 52.4065ZM8.509 14.0361C8.509 22.2684 8.509 30.4383 8.509 38.6705C23.8521 38.6705 39.1637 38.6705 54.4752 38.6705C54.4752 30.4227 54.4752 22.2372 54.4752 14.0673C52.6126 14.0673 50.8289 14.0673 48.9662 14.0673C49.0767 14.2388 49.1399 14.3168 49.203 14.3947C50.8762 16.7022 51.2077 19.1813 49.8975 21.7383C48.5558 24.342 46.3143 25.5738 43.3625 25.5738C41.5156 25.5738 39.6846 25.5738 37.8377 25.5738C37.5536 25.5738 37.2852 25.6049 37.0169 25.6205C37.0169 27.3512 37.0169 28.9883 37.0169 30.6721C37.5378 30.6721 37.9956 30.641 38.4376 30.6721C39.2584 30.7345 39.8424 30.6254 40.316 29.7367C41.0737 28.349 42.9837 27.9281 44.4043 28.6297C45.9197 29.3625 46.6616 31.0151 46.1565 32.5431C45.6987 33.9151 44.7042 34.7103 43.2678 34.8506C41.8945 34.9754 40.7895 34.3829 40.1266 33.1824C39.8424 32.6678 39.5425 32.4963 38.9742 32.5275C38.0587 32.5743 37.1274 32.5587 36.2119 32.5431C35.4068 32.5275 35.0595 32.2001 35.0438 31.4049C35.028 30.5162 35.0438 29.6431 35.0438 28.7544C35.0438 27.7254 35.0438 26.6963 35.0438 25.6361C34.1282 25.6361 33.339 25.6361 32.4708 25.6361C32.4708 27.32 32.5024 28.9571 32.455 30.5786C32.4234 31.2958 32.6128 31.7168 33.2916 32.091C34.5702 32.7926 35.0911 34.2582 34.7123 35.6614C34.3334 37.0802 33.0864 38.0469 31.6026 38.1092C30.2609 38.156 28.9191 37.2673 28.4456 36.0512C27.9089 34.6635 28.2246 32.9797 29.5032 32.3092C30.6239 31.7168 30.6081 30.9372 30.5924 29.9705C30.5608 28.7232 30.5924 27.4759 30.5766 26.2286C30.5766 26.0259 30.545 25.8388 30.5134 25.6517C29.661 25.6517 28.856 25.6517 28.0036 25.6517C28.0036 27.585 28.0194 29.456 28.0036 31.327C28.0036 32.2157 27.6563 32.5431 26.7566 32.5587C25.9358 32.5743 25.1307 32.6055 24.3099 32.5431C23.6153 32.4963 23.1891 32.6367 22.8261 33.3227C22.0526 34.7415 20.3163 35.2248 18.8009 34.6168C17.3171 34.0243 16.4805 32.4496 16.812 30.9528C17.1277 29.5651 18.2011 28.5517 19.5428 28.3646C21.0266 28.1619 22.2736 28.8012 23.0313 30.1264C23.1576 30.3447 23.3943 30.641 23.5838 30.6565C24.3888 30.7189 25.1939 30.6877 26.0462 30.6877C26.0462 28.9571 26.0462 27.32 26.0462 25.5893C25.699 25.5893 25.4148 25.5893 25.1307 25.5893C23.2049 25.5893 21.2949 25.6049 19.3691 25.5893C14.5547 25.527 11.2556 21.0055 12.7552 16.484C13.0393 15.642 13.5444 14.8781 13.9549 14.0517C12.1554 14.0361 10.3874 14.0361 8.509 14.0361ZM31.4605 23.6872C35.5962 23.6872 39.7161 23.7184 43.8518 23.6716C46.2196 23.6404 48.3032 21.785 48.6821 19.4931C49.0767 17.1544 47.7665 14.7377 45.5408 13.9738C44.6411 13.6619 44.278 13.163 44.1044 12.2743C43.3151 7.93988 38.8637 5.16461 34.5544 6.33397C33.6547 6.58343 33.0233 6.44311 32.2656 5.83504C29.5032 3.63666 26.3935 3.21569 23.1734 4.6501C20.0953 6.03773 18.3115 8.50117 18.0906 11.8689C18.0116 13.1006 17.8222 14.0361 16.5278 14.4415C16.4173 14.4727 16.3542 14.5506 16.2595 14.613C14.5389 15.9071 13.8128 18.1522 14.46 20.1168C15.1545 22.2372 17.0172 23.6716 19.2271 23.6872C23.3154 23.7184 27.388 23.6872 31.4605 23.6872ZM46.0933 12.134C48.9346 12.134 51.7286 12.134 54.5068 12.134C55.8801 12.134 56.4326 12.6641 56.4326 14.0049C56.4326 16.063 56.4326 18.1055 56.4326 20.1635C56.4326 26.5248 56.4326 32.9017 56.4326 39.263C56.4326 40.3388 56.1642 40.6039 55.0908 40.6195C54.933 40.6195 54.7751 40.6195 54.6173 40.6195C39.1952 40.6195 23.789 40.6195 8.36693 40.6195C8.16173 40.6195 7.94074 40.6195 7.73553 40.6195C6.85156 40.5883 6.55165 40.292 6.55165 39.4189C6.55165 30.8904 6.55165 22.3775 6.55165 13.849C6.55165 12.7108 7.16727 12.134 8.31958 12.134C9.97701 12.1184 11.6344 12.134 13.2919 12.134C14.2074 12.134 15.123 12.134 16.0858 12.134C16.149 11.5727 16.1963 11.1049 16.2437 10.5436C15.928 10.5436 15.6597 10.5436 15.4071 10.5436C13.1498 10.5436 10.8768 10.5436 8.6195 10.5436C6.14123 10.5436 4.89421 11.791 4.89421 14.2388C4.89421 23.5157 4.89421 32.7926 4.89421 42.0695C4.89421 42.5372 4.92578 43.0205 5.05206 43.4571C5.49405 44.9694 6.72528 45.7802 8.55636 45.7802C20.4425 45.7802 32.3445 45.7802 44.2307 45.7802C47.6718 45.7802 51.1288 45.7802 54.5699 45.7802C55.8485 45.7802 56.9535 45.3436 57.5375 44.2211C57.8848 43.5662 58.0426 42.7399 58.0426 41.9915C58.0742 32.7614 58.0584 23.5469 58.0584 14.3168C58.0584 14.1141 58.0584 13.8958 58.0426 13.6931C57.9164 11.8221 56.622 10.5748 54.712 10.5436C52.3916 10.5125 50.087 10.5436 47.7665 10.5436C47.0878 10.5436 46.409 10.5436 45.6671 10.5436C45.8408 11.0893 45.9513 11.5727 46.0933 12.134ZM13.7812 58.0662C25.6358 58.0662 37.4115 58.0662 49.2661 58.0662C49.2661 57.5517 49.2661 57.084 49.2661 56.6162C49.2503 55.4469 48.8399 54.8388 47.6876 54.4958C47.1983 54.3399 46.6616 54.2775 46.1407 54.2775C36.3855 54.2619 26.6303 54.2619 16.8909 54.2775C16.2437 54.2775 15.5334 54.3555 14.9967 54.6361C14.4916 54.9012 14.0022 55.4469 13.8286 55.977C13.6234 56.6318 13.7812 57.3646 13.7812 58.0662ZM39.1637 52.3598C39.1637 50.7539 39.1637 49.2259 39.1637 47.7135C34.0177 47.7135 28.9349 47.7135 23.8363 47.7135C23.8363 49.2883 23.8363 50.8006 23.8363 52.3598C28.9507 52.3598 34.0335 52.3598 39.1637 52.3598ZM20.0637 30.22C19.2902 30.2044 18.643 30.7969 18.6115 31.5453C18.5799 32.2781 19.2902 33.0108 20.0321 33.0108C20.7898 33.0108 21.4054 32.3872 21.4212 31.6232C21.4212 30.8281 20.8529 30.2356 20.0637 30.22ZM42.9363 33.0108C43.6466 33.0264 44.357 32.3716 44.4043 31.6544C44.4359 30.9216 43.8203 30.2512 43.0626 30.22C42.226 30.1732 41.6104 30.7501 41.5946 31.5764C41.5788 32.3404 42.1786 32.9797 42.9363 33.0108ZM31.5395 33.4474C30.7344 33.4318 30.1188 34.0087 30.0872 34.7727C30.0714 35.5211 30.7029 36.1759 31.4605 36.1915C32.2182 36.2071 32.8812 35.599 32.9128 34.835C32.9286 34.0867 32.3287 33.463 31.5395 33.4474Z" fill="#1B76FE"></path>
      <path d="M19.8111 12.1189C19.9216 8.71997 22.9523 5.7576 26.4408 5.61728C27.1827 5.58609 27.6563 5.91351 27.7036 6.4904C27.751 7.06728 27.3564 7.41029 26.5829 7.48824C23.7574 7.7533 21.9263 9.57749 21.7053 12.3684C21.6422 13.1011 21.2475 13.5065 20.6477 13.4598C20.0479 13.3974 19.7795 12.9764 19.8111 12.1189Z" fill="#1B76FE"></path>
    </g>
    <defs>
      <clipPath id="clip0_9235_2416">
        <rect width="57" height="58" fill="white" transform="translate(3 2)"></rect>
      </clipPath>
    </defs>
  </symbol>
  <symbol fill="none" xmlns="http://www.w3.org/2000/svg" viewBox="0 0 72 72" id="html&amp;css">
    <path d="M18.0268 6H20.767V8.71641H23.2928V6H26.033V14.2207H23.2928V11.4805H20.7908V14.2207H18.0268V6ZM29.6549 8.74023H27.2363V6H34.8256V8.74023H32.3951V14.2207H29.6549V8.74023ZM36.0289 6H38.9002L40.6635 8.89512L42.4268 6H45.2981V14.2207H42.5578V10.1461L40.6397 13.1008L38.7215 10.1461V14.2207H36.0289V6ZM46.6563 6H49.3965V11.5043H53.2805V14.2207H46.6563" fill="#627984"></path>
    <path d="M17.9316 62.1152L14 17.9855H57.2242L53.2926 62.0914L35.5764 67" fill="#E44D26"></path>
    <path d="M35.612 63.2471V21.6074H53.2806L49.9089 59.2559" fill="#F16529"></path>
    <path d="M22.03 27.0045H35.612V32.4135H27.9632L28.4636 37.9535H35.612V43.3506H23.5073L22.03 27.0045ZM23.7456 46.067H29.1784L29.5597 50.3918L35.612 52.0121V57.6594L24.5081 54.5617" fill="#FAFAFA"></path>
    <path d="M49.1466 27.0045H35.5884V32.4135H48.6463L49.1466 27.0045ZM48.1578 37.9535H35.5884V43.3625H42.2603L41.6289 50.3918L35.5884 52.0121V57.6355L46.6685 54.5617" fill="white"></path>
  </symbol>
  <symbol fill="none" xmlns="http://www.w3.org/2000/svg" viewBox="0 0 72 72" id="gitihub">
    <path fill-rule="evenodd" clip-rule="evenodd" d="M36.0215 10.05C21.6323 10.05 10 21.768 10 36.2649C10 47.8529 17.4532 57.662 27.7928 61.1337C29.0855 61.3947 29.559 60.5697 29.559 59.8756C29.559 59.2679 29.5164 57.1848 29.5164 55.0143C22.2778 56.577 20.7705 51.8893 20.7705 51.8893C19.6072 48.8511 17.8836 48.0702 17.8836 48.0702C15.5144 46.4643 18.0562 46.4643 18.0562 46.4643C20.6842 46.638 22.0632 49.1552 22.0632 49.1552C24.3892 53.1479 28.1374 52.0198 29.6453 51.3252C29.8605 49.6325 30.5503 48.4607 31.2826 47.8098C25.5094 47.202 19.4352 44.9453 19.4352 34.8757C19.4352 32.0112 20.4685 29.6676 22.1058 27.8449C21.8475 27.194 20.9425 24.5026 22.3647 20.9004C22.3647 20.9004 24.5618 20.2058 29.5159 23.5913C31.6369 23.0174 33.8242 22.7255 36.0215 22.7231C38.2186 22.7231 40.4584 23.0272 42.5266 23.5913C47.4812 20.2058 49.6784 20.9004 49.6784 20.9004C51.1005 24.5026 50.195 27.194 49.9367 27.8449C51.6172 29.6676 52.6079 32.0112 52.6079 34.8757C52.6079 44.9453 46.5337 47.1584 40.7173 47.8098C41.6653 48.6343 42.4835 50.1965 42.4835 52.6706C42.4835 56.1861 42.4409 59.0074 42.4409 59.8751C42.4409 60.5697 42.9149 61.3947 44.2071 61.1343C54.5467 57.6615 61.9999 47.8529 61.9999 36.2649C62.0425 21.768 50.3676 10.05 36.0215 10.05Z" fill="white"></path>
  </symbol>
  <symbol xmlns="http://www.w3.org/2000/svg" viewBox="0 0 640 512" id="laptop">
    <path d="M64 96c0-35.3 28.7-64 64-64H512c35.3 0 64 28.7 64 64V352H512V96H128V352H64V96zM0 403.2C0 392.6 8.6 384 19.2 384H620.8c10.6 0 19.2 8.6 19.2 19.2c0 42.4-34.4 76.8-76.8 76.8H76.8C34.4 480 0 445.6 0 403.2zM281 209l-31 31 31 31c9.4 9.4 9.4 24.6 0 33.9s-24.6 9.4-33.9 0l-48-48c-9.4-9.4-9.4-24.6 0-33.9l48-48c9.4-9.4 24.6-9.4 33.9 0s9.4 24.6 0 33.9zM393 175l48 48c9.4 9.4 9.4 24.6 0 33.9l-48 48c-9.4 9.4-24.6 9.4-33.9 0s-9.4-24.6 0-33.9l31-31-31-31c-9.4-9.4-9.4-24.6 0-33.9s24.6-9.4 33.9 0z"></path>
  </symbol>
  <symbol fill="none" xmlns="http://www.w3.org/2000/svg" viewBox="0 0 72 72" id="javascript">
    <path d="M62 7H8.99998C7.34313 7 5.99998 8.34315 5.99998 10V63C5.99998 64.6569 7.34313 66 8.99999 66H62C63.6568 66 65 64.6569 65 63V10C65 8.34315 63.6568 7 62 7Z" fill="#F7DF1E"></path>
    <path d="M45.6334 53.0941C46.8218 55.0345 48.368 56.4608 51.1026 56.4608C53.3998 56.4608 54.8673 55.3127 54.8673 53.7262C54.8673 51.8251 53.3596 51.1518 50.831 50.0457L49.445 49.4511C45.4442 47.7466 42.7864 45.6114 42.7864 41.0974C42.7864 36.9393 45.9546 33.7739 50.9059 33.7739C54.4309 33.7739 56.9651 35.0008 58.7913 38.213L54.474 40.985C53.5234 39.2806 52.498 38.6091 50.9059 38.6091C49.282 38.6091 48.2528 39.6393 48.2528 40.985C48.2528 42.6483 49.2829 43.3216 51.6617 44.3518L53.0477 44.9455C57.7583 46.9656 60.418 49.025 60.418 53.6551C60.418 58.6466 56.4969 61.3812 51.2309 61.3812C46.082 61.3812 42.7555 58.9276 41.1278 55.7116L45.6334 53.0941ZM26.0482 53.5745C26.9191 55.1197 27.7114 56.4262 29.6163 56.4262C31.4378 56.4262 32.5869 55.7135 32.5869 52.9424V34.0905H38.131V53.0173C38.131 58.7581 34.7652 61.3709 29.8523 61.3709C25.4132 61.3709 22.8425 59.0737 21.5351 56.3068L26.0482 53.5745Z" fill="black"></path>
  </symbol>
  <symbol xmlns="http://www.w3.org/2000/svg" viewBox="0 0 50 2" id="line">
    <path fill="#63c3ef" d="M0 0h50v2H0z"></path>
  </symbol>
  <symbol fill="none" xmlns="http://www.w3.org/2000/svg" viewBox="0 0 32 32" id="linkedin">
    <rect x="2" y="2" width="28" height="28" rx="14" fill="#1275B1"></rect>
    <path d="M12.6186 9.69215C12.6186 10.6267 11.8085 11.3843 10.8093 11.3843C9.81004 11.3843 9 10.6267 9 9.69215C9 8.7576 9.81004 8 10.8093 8C11.8085 8 12.6186 8.7576 12.6186 9.69215Z" fill="white"></path>
    <path d="M9.24742 12.6281H12.3402V22H9.24742V12.6281Z" fill="white"></path>
    <path d="M17.3196 12.6281H14.2268V22H17.3196C17.3196 22 17.3196 19.0496 17.3196 17.2049C17.3196 16.0976 17.6977 14.9855 19.2062 14.9855C20.911 14.9855 20.9008 16.4345 20.8928 17.5571C20.8824 19.0244 20.9072 20.5219 20.9072 22H24V17.0537C23.9738 13.8954 23.1508 12.4401 20.4433 12.4401C18.8354 12.4401 17.8387 13.1701 17.3196 13.8305V12.6281Z" fill="white"></path>
  </symbol>
</svg>